<svg xmlns="http://www.w3.org/2000/svg" width="92" height="65.364" viewBox="0 0 92 65.364"><defs><style>.a{fill:#b4435d;}</style></defs><g transform="translate(0 27.678)"><path class="a" d="M5.13,124.708v17.027a3.791,3.791,0,0,0,1.024,2.721,3.521,3.521,0,0,0,2.668,1.077h6.862c.582,0,.936,4.924.307,4.924H8.413a7.539,7.539,0,0,1-3.232-.719,8.889,8.889,0,0,1-2.692-1.925A9.068,9.068,0,0,1,.666,145.02,8.449,8.449,0,0,1,0,141.735v-18.8a2.428,2.428,0,0,1,.8-1.692c.241-.25.635-.852.774-.58A13.538,13.538,0,0,0,5.13,124.708Z" transform="translate(0 -120.597)"/><path class="a" d="M58.081,233.3c.389,0,.861-.06,1.077.234a7.421,7.421,0,0,0,1.378,1.588c.173.122.1.416.108.641a2.31,2.31,0,0,1-.717,1.537,3.569,3.569,0,0,1-1.54.922H57.67a7.522,7.522,0,0,1-3.23-.719" transform="translate(-42.397 -208.367)"/><path class="a" d="M77.915,143.35a11.473,11.473,0,0,1,4.743,1,12.918,12.918,0,0,1,6.616,6.643,12.2,12.2,0,0,1,.024,9.616,12.882,12.882,0,0,1-2.639,3.924,12.251,12.251,0,0,1-8.8,3.641,12.6,12.6,0,0,1-4.82-.922,12.059,12.059,0,0,1-3.949-2.59A12.566,12.566,0,0,1,66.4,151.017a12.03,12.03,0,0,1,2.639-3.9,13.127,13.127,0,0,1,3.975-2.668A13.435,13.435,0,0,1,77.915,143.35Zm-.051,5.079a7.353,7.353,0,0,0-2.847.564,7.162,7.162,0,0,0-2.358,1.566,7.635,7.635,0,0,0-1.591,2.334,7.137,7.137,0,0,0-.591,2.924,7.02,7.02,0,0,0,.591,2.845,7.8,7.8,0,0,0,1.591,2.385,7.289,7.289,0,0,0,2.358,1.615,7.157,7.157,0,0,0,5.694,0,7.347,7.347,0,0,0,2.36-1.615,7.883,7.883,0,0,0,1.591-2.385,7.092,7.092,0,0,0,.588-2.845,7.585,7.585,0,0,0-7.335-7.386h-.051Z" transform="translate(-50.972 -138.317)"/><path class="a" d="M186.947,145.417a11.974,11.974,0,0,1,4.334,1.334,12.281,12.281,0,0,1,3.486,2.743,13,13,0,0,1,2.309,3.8,12.044,12.044,0,0,1,.845,4.488v9.9a2.383,2.383,0,0,1-.768,1.77,2.447,2.447,0,0,1-1.743.743,7.024,7.024,0,0,1-.794-.051,2.22,2.22,0,0,1-.847-.283,2.627,2.627,0,0,1-.745-.642,1.981,1.981,0,0,1-.385-1.128q-.256.1-.922.462t-.973.511a11.874,11.874,0,0,1-1.179.462c-.411.137-.838.272-1.283.409a13.992,13.992,0,0,1-2.767.257,11.859,11.859,0,0,1-6.873-2.077,12.809,12.809,0,0,1-4.513-5.36,11.95,11.95,0,0,1-.794-2.387,11.767,11.767,0,0,1-.283-2.59,11.456,11.456,0,0,1,.283-2.564,13.492,13.492,0,0,1,.794-2.411,12.591,12.591,0,0,1,4.513-5.387,4.521,4.521,0,0,1,1.925-1.062,3.54,3.54,0,0,0,2.166-.7c.759-.5,1.92-.336,2.887-.336.272,0,.409.044.615.044S186.672,145.384,186.947,145.417Zm-1.489,19.745a7.361,7.361,0,0,0,2.847-.564,7.156,7.156,0,0,0,2.358-1.564,7.62,7.62,0,0,0,1.591-2.334,7.166,7.166,0,0,0,.591-2.924,6.942,6.942,0,0,0-.591-2.794,7.359,7.359,0,0,0-1.615-2.358,8.412,8.412,0,0,0-2.36-1.617,6.838,6.838,0,0,0-5.614-.024,7.881,7.881,0,0,0-2.334,1.615,7.717,7.717,0,0,0-1.615,2.358,6.9,6.9,0,0,0-.591,2.82,6.774,6.774,0,0,0,.615,2.871,7.5,7.5,0,0,0,1.666,2.334,8.429,8.429,0,0,0,2.36,1.591A6.441,6.441,0,0,0,185.458,165.162Z" transform="translate(-134.769 -139.826)"/><path class="a" d="M235.681,243.812c-.04,0-.08-.015-.117-.022a5.6,5.6,0,0,1-.56.051c.016.453.029.88.027,1.252a7.781,7.781,0,0,1-.046.874,3.3,3.3,0,0,1-.719,1.692,3.962,3.962,0,0,1-1.436,1.1,3.908,3.908,0,0,1-1.617.385h-1.23a2.6,2.6,0,0,0-1.77.794,2.414,2.414,0,0,0-.743,1.77,2.565,2.565,0,0,0,.666,1.77,2.065,2.065,0,0,0,1.591.743h1.794a8.787,8.787,0,0,0,3.336-.845,9.176,9.176,0,0,0,2.666-1.922,10.88,10.88,0,0,0,2.071-2.964,7.556,7.556,0,0,0,.712-3.376v-1.23A38.855,38.855,0,0,1,235.681,243.812Z" transform="translate(-177.151 -216.538)"/><path class="a" d="M286,145.053a2.548,2.548,0,0,0-.509,1.575v19.285a2.593,2.593,0,0,0,.8,1.949,2.665,2.665,0,0,0,1.925.77,2.546,2.546,0,0,0,1.821-.77,2.6,2.6,0,0,0,.794-1.949V146.628a2.542,2.542,0,0,0-.794-1.9c-.389-.376-.861-.929-1.292-.712A11.868,11.868,0,0,1,286,145.053Z" transform="translate(-222.336 -138.799)"/><path class="a" d="M324.236,145.959a3.386,3.386,0,0,0,3.489-.263v.113a2.871,2.871,0,0,1,.666,1.947,2.437,2.437,0,0,1-.666,1.8l-8.052,8.1,8.052,8.1a2.506,2.506,0,0,1,.717,1.847,2.852,2.852,0,0,1-.155.922,2.218,2.218,0,0,1-.562.872,2.3,2.3,0,0,1-1.694.668,2.668,2.668,0,0,1-1.949-.821l-8.05-7.948q-.926.922-1.949,1.947t-2.053,2.079q-1.025,1.052-2.051,2.077t-1.949,1.947a2.272,2.272,0,0,1-.872.538,3.192,3.192,0,0,1-1.077.179,2.875,2.875,0,0,1-.872-.128,2.019,2.019,0,0,1-.821-.538,2.723,2.723,0,0,1-.719-1.847,2.4,2.4,0,0,1,.668-1.692h-.051l8.258-8.207-8.258-8.2a2.2,2.2,0,0,1-.615-1.54,2.92,2.92,0,0,1,.719-1.9,2.47,2.47,0,0,1,1.692-.77,2.646,2.646,0,0,1,1.9.872v-.1l8.054,8.054Z" transform="translate(-236.494 -139.789)"/></g><path class="a" d="M22.464.215a2.145,2.145,0,0,1,1.641.692,2.222,2.222,0,0,1,.77,1.615v18A11.4,11.4,0,0,1,23.849,25.3a12.885,12.885,0,0,1-2.77,3.949A13.715,13.715,0,0,1,17.1,31.937a11.317,11.317,0,0,1-4.692,1,11.913,11.913,0,0,1-4.769-.973A12.6,12.6,0,0,1,3.694,29.3,12.958,12.958,0,0,1,1,25.347a11.742,11.742,0,0,1-1-4.822,12.346,12.346,0,0,1,.9-4.871A13.023,13.023,0,0,1,3.588,11.7v.053A13.34,13.34,0,0,1,7.767,9.037a12.419,12.419,0,0,1,4.694-.922,15.327,15.327,0,0,1,3.411.46,11.649,11.649,0,0,1,3.922,1.8V2.779A2.365,2.365,0,0,1,20,1.806a3.382,3.382,0,0,1,.538-.845A2.244,2.244,0,0,1,21.332.37a1.775,1.775,0,0,1,.925-.155h.208ZM19.8,20.525a6.68,6.68,0,0,0-.588-2.716,8.07,8.07,0,0,0-1.615-2.385,7.929,7.929,0,0,0-2.36-1.668,6.676,6.676,0,0,0-2.82-.615,7.075,7.075,0,0,0-2.847.591A7.447,7.447,0,0,0,5.614,17.68a7.11,7.11,0,0,0-.591,2.845A7.017,7.017,0,0,0,5.614,23.4,7.674,7.674,0,0,0,7.2,25.732a7.479,7.479,0,0,0,2.36,1.588,7.059,7.059,0,0,0,2.847.591,6.889,6.889,0,0,0,2.82-.591,7.971,7.971,0,0,0,2.36-1.588A7.44,7.44,0,0,0,19.208,23.4,7.015,7.015,0,0,0,19.8,20.525Z" transform="translate(0 -0.16)"/><path class="a" d="M121.727,36.024a11.931,11.931,0,0,1,4.334,1.334,12.289,12.289,0,0,1,3.489,2.745,13.091,13.091,0,0,1,2.307,3.794,12.044,12.044,0,0,1,.845,4.488v9.9a2.377,2.377,0,0,1-.77,1.77,2.442,2.442,0,0,1-1.743.745,7.025,7.025,0,0,1-.794-.051,2.22,2.22,0,0,1-.847-.283,2.549,2.549,0,0,1-.741-.642,1.941,1.941,0,0,1-.385-1.13c-.173.071-.48.223-.925.462s-.77.409-.973.513a11.87,11.87,0,0,1-1.179.462q-.617.206-1.281.411a14.185,14.185,0,0,1-2.77.257,11.859,11.859,0,0,1-6.873-2.077,12.809,12.809,0,0,1-4.513-5.36,12.127,12.127,0,0,1-.8-2.385,11.8,11.8,0,0,1-.281-2.59,11.456,11.456,0,0,1,.281-2.564,13.682,13.682,0,0,1,.8-2.411,12.585,12.585,0,0,1,4.513-5.384,11.963,11.963,0,0,1,6.873-2.051h.717A5.194,5.194,0,0,1,121.727,36.024Zm-1.489,19.748a7.342,7.342,0,0,0,2.845-.564,7.224,7.224,0,0,0,2.36-1.564,7.674,7.674,0,0,0,1.591-2.334,7.137,7.137,0,0,0,.588-2.924,6.985,6.985,0,0,0-.588-2.794,7.354,7.354,0,0,0-1.617-2.358,8.37,8.37,0,0,0-2.358-1.617,6.843,6.843,0,0,0-5.617-.024,7.843,7.843,0,0,0-2.332,1.615,7.746,7.746,0,0,0-1.617,2.36,6.889,6.889,0,0,0-.591,2.82,6.791,6.791,0,0,0,.615,2.874,7.552,7.552,0,0,0,1.666,2.334,8.313,8.313,0,0,0,2.36,1.588A6.526,6.526,0,0,0,120.238,55.772Z" transform="translate(-83.977 -28.018)"/><path class="a" d="M218.288,0a2.457,2.457,0,0,1,1.871.794,3.211,3.211,0,0,1,.847,1.975V7.386h11.848a2.324,2.324,0,0,1,1.794.794,2.632,2.632,0,0,1-.051,3.668,2.334,2.334,0,0,1-1.743.821H221.006v7.488A7.361,7.361,0,0,0,221.571,23a7.5,7.5,0,0,0,1.564,2.387,7.714,7.714,0,0,0,2.358,1.641,6.933,6.933,0,0,0,2.9.615,7.931,7.931,0,0,0,2.949-.487,6.776,6.776,0,0,0,2.128-1.358h-.051a2.792,2.792,0,0,1,3.8.051,2.333,2.333,0,0,1,.719,1.794,3.028,3.028,0,0,1-.128.845,1.536,1.536,0,0,1-.487.743h.051a13.1,13.1,0,0,1-3.924,2.668,11.544,11.544,0,0,1-4.641.922,14.249,14.249,0,0,1-5.052-.9,12.338,12.338,0,0,1-4.154-2.566,12.718,12.718,0,0,1-3.975-9.2V2.772a2.861,2.861,0,0,1,.745-1.9A2.4,2.4,0,0,1,218.288,0Z" transform="translate(-167.922 0)"/><path class="a" d="M317.339,36.024a11.931,11.931,0,0,1,4.334,1.334,12.259,12.259,0,0,1,3.489,2.745A13,13,0,0,1,327.47,43.9a12.044,12.044,0,0,1,.845,4.488v9.9a2.377,2.377,0,0,1-.77,1.77,2.449,2.449,0,0,1-1.743.745,7.062,7.062,0,0,1-.8-.051,2.233,2.233,0,0,1-.847-.283,2.548,2.548,0,0,1-.741-.642,1.941,1.941,0,0,1-.385-1.13c-.173.071-.48.223-.925.462s-.77.409-.973.513a11.871,11.871,0,0,1-1.179.462c-.409.137-.838.274-1.281.411a14.168,14.168,0,0,1-2.77.257,11.854,11.854,0,0,1-6.873-2.077,12.831,12.831,0,0,1-4.515-5.36,12.122,12.122,0,0,1-.794-2.385,11.8,11.8,0,0,1-.283-2.59,11.457,11.457,0,0,1,.283-2.564,13.673,13.673,0,0,1,.794-2.411,12.575,12.575,0,0,1,4.515-5.384,11.963,11.963,0,0,1,6.873-2.051h.719A5.184,5.184,0,0,1,317.339,36.024Zm-1.487,19.748a7.361,7.361,0,0,0,2.847-.564,7.223,7.223,0,0,0,2.36-1.564,7.628,7.628,0,0,0,1.588-2.334,7.137,7.137,0,0,0,.591-2.924,6.949,6.949,0,0,0-.591-2.794,7.383,7.383,0,0,0-1.615-2.358,8.4,8.4,0,0,0-2.358-1.617,6.843,6.843,0,0,0-5.617-.024,7.881,7.881,0,0,0-2.334,1.615,7.7,7.7,0,0,0-1.615,2.36,6.889,6.889,0,0,0-.591,2.82,6.759,6.759,0,0,0,.617,2.874A7.589,7.589,0,0,0,310.8,53.6a8.375,8.375,0,0,0,2.36,1.588A6.475,6.475,0,0,0,315.852,55.772Z" transform="translate(-236.315 -28.018)"/></svg>