<svg version="1.1" id="Camada_1" xmlns="http://www.w3.org/2000/svg" xmlns:xlink="http://www.w3.org/1999/xlink" x="0px" y="0px"
	 width="900px" height="600px" viewBox="0 0 900 600" enable-background="new 0 0 900 600" xml:space="preserve">
<g>
	<g id="Camada_10">
		<polygon fill="#FFFFFF" points="555.948,338.974 557.109,333.338 556.611,323.377 551.875,315.97 529.443,321.605
			532.271,335.217 532.58,342.976 540.316,342.976 551.875,341.113 		"/>
		<polyline fill="#FFFFFF" points="617.632,255.363 624.744,248.087 630.655,238.856 634.059,226.746 611.708,220.317
			608.115,231.306 605.722,242.938 601.995,248.087 		"/>
		<polyline fill="#FFFFFF" points="624.069,265.034 636.349,259.396 647.722,250.134 650.76,245.295 634.059,232.627
			630.655,238.856 620.744,249.878 617.632,255.363 622.52,265.317 		"/>
		<polyline fill="#FFFFFF" points="623.487,273.303 637.851,275.035 653.438,270.715 658.607,265.232 649.024,249.402
			641.046,257.146 625.991,264.152 622.52,265.317 623.208,272.46 		"/>
		<polygon fill="#FFFFFF" points="593.722,246.611 583.248,226.656 566.219,230.403 579.528,258.488 		"/>
		<polygon fill="#FFFFFF" points="613.17,289.485 620.943,277.376 620.943,262.818 613.17,252.779 601.995,248.087 589.127,250.457
			579.528,258.488 576.409,268.785 579.528,280.097 583.248,286.373 593.633,292.506 606.37,292.905 		"/>
		<polygon fill="#FFFFFF" points="588.68,307.947 594.656,292.905 585.323,289.485 580.276,286.311 576.905,293.818
			583.248,298.191 		"/>
		<polyline fill="#FFFFFF" points="574.672,326.426 587.638,310.469 585.245,301.777 576.905,293.818 571.401,301.777
			566.219,307.287 569.705,312.822 573.94,324.088 572.538,325.453 		"/>
		<polygon fill="#FFFFFF" points="557.886,339.011 557.886,330.168 555.962,319.525 551.227,314.494 563.657,307.742
			567.092,308.937 571.99,318.898 574.672,326.426 572.666,330.953 		"/>
		<polygon fill="#FFFFFF" points="515.715,242.709 519.882,206.575 519.632,179.482 514.971,142.027 504.991,105.813
			475.606,95.777 440.632,90.777 401.234,92.793 366.456,97.283 348.524,104.431 337.132,126.777 328.84,158.594 327.882,188.361
			332.382,226.656 336.56,242.073 353.39,250.384 372.03,262.218 396.57,269.663 424.719,272.467 451.061,269.663 470.51,265.317
			493.118,256.596 		"/>
		<polygon fill="#FFFFFF" points="516.238,366.49 525.22,360.685 531.622,349.22 531.622,332.099 525.22,316.687 514.965,305.254
			502.392,305.193 498.32,305.851 505.682,323.377 511.885,347.246 		"/>
		<polygon fill="#FFFFFF" points="458.882,92.527 457.382,87.402 451.757,82.152 444.507,79.027 434.882,76.776 421.757,77.902
			412.257,81.277 406.929,85.777 402.879,91.777 		"/>
		<polygon fill="#FFFFFF" points="436.917,77.252 436.917,61.527 423.882,55.777 440.507,47.902 428.472,37.402 429.278,31.152
			424.632,30.277 421.757,30.277 421.757,42.527 427.257,46.902 406.632,55.652 429.507,66.527 429.333,77.252 		"/>
		<polygon fill="#FFFFFF" points="432.382,28.277 436.257,24.152 437.434,18.896 436.382,13.527 433.257,9.652 428.882,7.902
			423.57,7.902 419.507,9.277 416.507,12.277 415.007,16.027 415.007,20.402 416.507,25.277 419.632,28.277 423.97,30.277
			427.76,29.756 		"/>
		<polygon fill="#FFFFFF" points="470.51,163.777 474.382,149.974 472.446,138.777 468.16,130.777 460.278,124.527 448.315,121.777
			437.349,124.277 428.472,130.531 426.346,136.24 426.346,146.059 426.346,154.415 425.373,161.522 428.873,169.906
			436.174,174.277 443.618,177.264 454.382,177.264 463.954,174.282 469.335,167.277 		"/>
		<polygon fill="#FFFFFF" points="416.299,171.027 421.799,165.194 425.995,156.985 427.299,147.759 425.373,137.027
			420.799,128.86 413.799,122.527 402.879,119.027 392.132,121.777 383.164,126.243 378.596,134.86 376.247,143.194
			376.247,153.372 380.132,163.527 387.299,171.027 393.219,174.36 402.879,176.027 411.132,174.36 		"/>
		<polygon fill="#FFFFFF" points="485.003,227.53 489.703,173.218 481.799,179.482 470.51,187.194 469.335,187.527 469.335,235.364
					"/>
		<polygon fill="#FFFFFF" points="469.335,235.364 469.335,188.361 461.299,192.027 451.061,196.027 445.834,196.979
			445.834,242.675 461.799,238.694 		"/>
		<polygon fill="#FFFFFF" points="408.492,242.938 408.492,196.979 396.37,192.694 382.632,184.86 377.422,181.622 377.422,230.403
			386.465,235.364 397.465,240.527 		"/>
		<polygon fill="#FFFFFF" points="445.834,196.979 445.834,242.675 436.174,244.527 417.965,244.527 408.492,243.694
			408.492,196.979 418.465,198.283 432.465,199.527 		"/>
		<polygon fill="#FFFFFF" points="377.422,230.403 377.422,181.622 368.632,174.86 358.619,165.384 358.619,214.473
			363.299,219.959 368.965,224.36 		"/>
		<polygon fill="#FFFFFF" points="443.82,288.706 443.502,278.924 431.382,276.19 414.005,278.527 403.418,280.906 403.443,284.005
			414.005,289.485 425.727,293.566 437.882,292.268 		"/>
		<polygon fill="#FFFFFF" points="459.081,305.193 459.081,301.619 457.079,295.715 452.105,292.268 445.871,288.65
			444.546,285.609 444.079,273.98 452.105,276.19 460.632,280.906 465.497,289.979 465.497,298.191 		"/>
		<polygon fill="#FFFFFF" points="458.895,306.572 458.382,303.09 458.165,298.917 455.236,294.437 452.105,291.527
			446.658,289.107 444.079,289.485 439.182,291.487 432.447,292.506 427.275,293.005 428.257,294.936 430.257,298.917
			431.507,303.09 431.382,307.742 430.007,312.822 427.973,316.586 434.007,316.586 443.085,314.152 450.632,311.027 		"/>
		<polygon fill="#FFFFFF" points="427.973,316.586 430.007,312.822 431.382,307.742 431.382,302.152 429.172,296.757
			427.275,293.005 418.257,292.268 410.007,288.641 405.084,285.609 402.125,287.672 399.257,292.268 397.257,298.191
			397.257,303.402 398.069,310.562 404.185,313.777 414.005,316.586 423.383,317.527 		"/>
		<polygon fill="#FFFFFF" points="405.084,285.609 404.185,283.214 403.418,273.98 397.757,276.19 391.257,280.097 385.132,288.641
			384.257,297.152 387.132,302.845 391.632,307.742 396.37,310.402 398.587,311.896 397.749,307.742 397.257,300.027
			398.819,293.566 402.882,287.672 		"/>
		<polyline fill="#FFFFFF" points="519.134,420.293 516.237,381.777 514.207,357.51 507.854,331.728 501.882,311.896
			492.123,294.936 474.498,289.587 465.497,288.641 465.497,298.191 454.864,308.746 439.264,315.176 424.719,317.254
			403.418,312.822 388.675,304.523 382.882,294.936 385.382,285.014 387.257,280.906 373.132,284.005 355.93,289.366
			349.217,305.193 341.788,335.217 336.81,354.978 330.882,384.363 327.882,404.107 327.882,412.312 344.832,421.508
			367.132,427.551 393.132,433.187 423.882,437.277 452.105,435.83 478.153,431.777 497.451,426.99 519.134,421.017 		"/>
		<polygon fill="#FFFFFF" points="490.929,418.299 482.799,404.863 480.632,407.531 479.466,411.769 480.632,416.197
			482.799,418.299 486.858,420.031 489.178,420.031 		"/>
		<polygon fill="#FFFFFF" points="424.465,411.41 414.736,424.924 412.299,421.017 411.465,417.66 414.005,413.031 417.299,410.39
			421.434,410.004 		"/>
		<polygon fill="#FFFFFF" points="492.123,418.709 494.799,415.197 495.56,411.769 493.841,407.031 491.132,404.107
			486.858,403.064 482.799,404.863 		"/>
		<polygon fill="#FFFFFF" points="414.736,424.924 424.465,411.41 426.799,413.697 428.132,417.66 426.965,422.363 424.299,424.924
			420.06,426.75 		"/>
		<polygon fill="#FFFFFF" points="359.393,410.004 350.465,395.402 355.025,394.363 359.747,396.363 362.348,399.697
			363.132,404.107 362.348,407.363 		"/>
		<polygon fill="#FFFFFF" points="358.974,409.322 350.465,396.363 347.238,399.031 346.581,403.064 347.526,408.474 351.4,410.39
			355.025,411.41 		"/>
		<polygon fill="#FFFFFF" points="335.417,356.697 352.778,296.706 344.097,296.706 337.437,298.191 326.5,307.287 319.982,323.377
			319.982,332.697 321.538,342.976 325.505,350.379 		"/>
		<polygon fill="#FFFFFF" points="320.102,339.648 308.529,345.982 302.089,339.011 298.624,329.474 299.47,324.748
			309.363,319.246 321.34,316.955 319.132,323.377 319.982,331.469 		"/>
		<polygon fill="#FFFFFF" points="307.861,345.258 304.028,341.113 300.71,335.217 299.47,324.748 295.639,328.527 288.167,336.527
			283.039,341.349 285.632,346.345 288.167,352.027 291.882,356.697 295.639,358.027 300.882,352.527 		"/>
		<polygon fill="#FFFFFF" points="288.094,375.045 283.039,372.992 279.894,369.527 273.544,363.849 274.928,356.697
			279.894,347.246 283.397,343.674 286.032,347.246 289.801,354.08 295.639,358.027 293.382,362.027 289.801,370.277 		"/>
		<polygon fill="#FFFFFF" points="284.592,385.527 288.094,375.045 283.039,372.992 277.365,367.265 274.928,363.777
			272.604,366.527 270.703,374.652 270.703,379.787 274.928,379.996 279.894,382.277 		"/>
		<polygon fill="#FFFFFF" points="293.132,408.865 293.132,393.816 285.119,383.953 273.544,379.926 262.465,379.996
			250.38,389.697 247.356,402.256 253.465,414.09 263.465,424.924 277.799,424.924 286.132,418.299 		"/>
		<polygon fill="#FFFFFF" points="311.465,433.187 293.132,408.865 288.167,415.554 281.307,422.666 295.639,442.363 		"/>
		<polyline fill="#FFFFFF" points="269.978,454.385 267.913,439.953 272.604,424.924 263.465,424.924 256.604,421.422
			251.799,427.551 247.356,437.906 246.511,444.853 246.768,452.931 270.703,454.385 		"/>
		<polygon fill="#FFFFFF" points="245.765,446.574 248.245,435.83 253.32,425.613 256.604,421.422 249.71,412.791 240.465,418.299
			232.799,424.924 226.866,434.396 226.456,438.426 		"/>
		<polygon fill="#FFFFFF" points="226.015,433.187 214.489,420.656 222.465,411.769 234.132,404.863 248.196,403.885
			249.71,412.791 240.799,418.027 231.153,427.551 		"/>
		<polygon fill="#FFFFFF" points="475.715,467.457 478.437,456.347 474.079,446.574 463.318,442.363 452.039,443.697
			439.848,450.697 432.465,462.363 432.465,472.976 439.264,479.994 447.555,483.205 444.001,470.97 445.661,466.613
			452.039,462.363 459.466,459.027 467.195,458.027 470.173,462.785 		"/>
		<polygon fill="#FFFFFF" points="377.51,482.121 388.497,477.912 393.799,470.97 393.799,462.363 389.661,450.914 377.141,445.115
			364.272,441.027 354.482,442.363 347.59,448.863 347.59,458.363 351.168,466.613 360.132,457.027 370.257,459.027
			377.141,462.785 383.026,470.722 378.109,476.873 		"/>
		<polygon fill="#FFFFFF" points="495.56,427.551 478.153,431.777 452.105,435.83 424.465,435.83 393.132,433.187 359.747,424.924
			344.712,419.769 344.689,427.799 347.228,439.06 351.375,445.91 359.747,442.363 370.257,442.363 380.003,445.91 388.861,454.385
			393.799,462.363 393.799,470.97 391.112,476.873 398.465,478.969 410.696,479.994 422.302,481.222 439.264,479.994
			434.553,475.785 432.465,469.248 434.553,459.06 440.194,450.496 447.029,446.574 455.451,443.291 463.318,442.363
			472.453,445.115 478.075,448.863 478.437,456.347 475.715,467.457 478.437,466.613 484.699,461.275 488.306,456.347
			494.393,445.115 495.56,433.187 		"/>
		<polygon fill="#FFFFFF" points="377.459,483.687 372.03,478.969 366.685,475.144 358.471,472.976 347.238,473.91 355.025,461.275
			358.974,456.635 368.898,458.758 377.141,462.785 383.026,469.248 380.003,475.785 		"/>
		<polygon fill="#FFFFFF" points="374.065,494.646 376.723,482.795 372.03,478.969 364.272,475.144 358.471,472.976
			350.465,473.851 347.238,473.91 342.803,486.552 354.482,488.474 364.272,489.564 		"/>
		<polygon fill="#FFFFFF" points="368.898,513.717 377.459,510.24 380.003,504.777 376.723,496.078 368.626,491.826
			357.626,488.474 345.034,487.502 336.07,489.564 330.182,496.078 333.632,504.027 341.788,510.24 351.168,513.717
			359.763,514.402 		"/>
		<polygon fill="#FFFFFF" points="376.723,529.129 373.886,515.734 367.132,517.957 355.093,519.277 346.581,517.957
			338.518,514.869 338.587,527.092 342.803,524.951 349.217,524.951 358.471,524.951 368.626,527.277 374.871,529.129
			377.141,530.324 		"/>
		<polygon fill="#FFFFFF" points="385.629,548.679 377.141,530.324 370.257,527.76 361.606,525.668 352.486,524.951
			338.587,527.092 336.805,537.631 346.138,538.603 364.272,541.277 378.109,547.592 		"/>
		<polygon fill="#FFFFFF" points="401.994,576.244 350.382,576.244 350.382,570.982 346.138,560.469 340.73,551.215 333.278,544.74
			325.106,539.595 334.132,537.513 351.583,538.715 372.03,544.818 389.661,552.849 398.882,563.732 		"/>
		<polygon fill="#FFFFFF" points="359.763,568.994 362.348,565.726 361.606,562.031 357.83,560.469 354.635,562.361
			355.025,565.726 356.882,568.994 		"/>
		<polygon fill="#FFFFFF" points="347.59,551.777 351.007,548.679 351.007,545.777 348.632,543.277 345.257,543.902
			342.803,546.277 342.803,549.277 345.257,551.152 		"/>
		<path fill="#FFFFFF" d="M350.382,574.902c0-0.984-1.829-8.449-1.829-8.449l-4.354-9.307l-6.761-6.869l-7.257-7l-8.225-5.254
			l-11.576,2.129l-10.5,5.75l-7.875,5.875l-6.5,12.859l-1.875,7.141l-0.232,3.922h66.982L350.382,574.902L350.382,574.902z"/>
		<polygon fill="#FFFFFF" points="337.437,564.636 339.611,561.189 338.109,558.236 335.442,557.066 332.132,558.236
			331.382,561.193 332.132,563.777 334.007,565.277 		"/>
		<polyline fill="#FFFFFF" points="401.994,576.244 389.661,576.244 388.861,591.146 401.994,591.146 401.994,576.566 		"/>
		<polygon fill="#FFFFFF" points="389.661,576.244 389.661,591.146 370.257,591.117 370.257,576.244 		"/>
		<polygon fill="#FFFFFF" points="370.257,591.117 370.257,576.244 346.138,575.699 346.138,590.386 		"/>
		<polygon fill="#FFFFFF" points="346.138,590.386 346.138,576.244 323.655,575.699 323.655,589.777 		"/>
		<rect x="301.895" y="575.699" fill="#FFFFFF" width="21.761" height="14.688"/>
		<polygon fill="#FFFFFF" points="301.895,590.386 301.895,576.244 283.397,575.699 283.882,590.386 		"/>
		<polygon fill="#FFFFFF" points="477.185,474.648 474.079,474.648 466.132,475.144 459.466,476.873 453.631,481.222
			449.132,484.769 442.639,470.97 447.555,465.347 454.459,461.275 461.935,458.709 466.457,458.123 471.299,462.785
			474.269,468.851 		"/>
		<polygon fill="#FFFFFF" points="482.677,489.049 478.075,488.474 471.632,488.761 465.299,489.564 459.912,492.031
			453.501,494.646 452.039,494.994 449.132,484.769 452.039,482.121 456.767,478.031 463.318,475.875 468.796,474.978
			475.173,474.978 477.185,474.648 479.527,479.994 		"/>
		<polygon fill="#FFFFFF" points="494.393,498.197 492.466,494.646 487.553,491.197 477.185,489.564 468.039,488.474
			459.912,492.031 452.039,496.078 446.465,501.17 444.867,507.373 447.555,511.531 453.774,514.869 461.935,516.871
			471.466,515.734 477.794,513.135 485.807,510.34 491.299,505.863 		"/>
		<polygon fill="#FFFFFF" points="488.306,528.039 483.878,526.697 478.075,526.031 472.453,526.031 465.905,526.031
			458.966,528.039 448.525,531.414 452.039,517.957 459.912,517.957 469.63,519.861 478.075,516.871 484.699,515.734
			488.306,515.677 		"/>
		<polygon fill="#FFFFFF" points="487.148,538.715 487.152,538.674 488.306,527.197 480.632,526.324 474.079,526.031
			467.195,526.031 458.966,528.039 449.965,531.414 445.661,538.023 441.481,549.531 451.132,546.197 458.632,543.42
			465.905,542.336 473.177,540.861 480.977,540.861 		"/>
		<polygon fill="#FFFFFF" points="491.132,567.361 492.966,565.277 492.966,561.861 489.881,559.379 487.148,559.379
			484.699,561.193 484.699,564.73 487.148,567.361 		"/>
		<polygon fill="#FFFFFF" points="480.977,551.777 482.677,548.679 480.977,545.361 477.132,544.531 474.079,546.861
			474.079,549.531 475.799,551.777 478.378,553.107 		"/>
		<polygon fill="#FFFFFF" points="469.733,568.994 471.299,567.361 470.515,563.371 468.039,561.193 464.894,562.531
			462.799,564.636 462.797,568.615 466.299,569.896 		"/>
		<polygon fill="#FFFFFF" points="542.265,576.787 541.299,567.361 538.466,559.379 531.632,551.777 522.32,545.031
			515.132,541.197 505.306,539.691 502.371,539.615 498.632,543.277 491.299,547.527 484.699,553.939 480.977,558.47
			478.075,565.277 475.632,570.982 474.966,576.244 		"/>
		<polygon fill="#FFFFFF" points="474.966,578.34 475.632,570.982 477.466,564.636 480.977,558.47 484.699,553.939 491.232,547.592
			496.473,544.531 502.009,539.967 495.299,538.715 480.977,539.615 471.299,541.244 460.344,543.166 449.799,547.592
			441.481,551.777 434.553,557.146 427.465,563.732 423.795,571.572 423.673,577.332 		"/>
		<path fill="#FFFFFF" d="M542.265,591.476c0.033-0.279-0.056-15.232-0.056-15.232l-18.438,1.09l-0.641,14.143H542.265z"/>
		<polygon fill="#FFFFFF" points="523.771,591.146 523.771,577.332 502.009,576.566 502.009,591.117 		"/>
		<polygon fill="#FFFFFF" points="502.009,591.117 502.009,577.332 479.527,577.332 479.527,591.146 		"/>
		<polygon fill="#FFFFFF" points="479.527,591.146 479.527,576.621 455.407,576.787 455.407,591.146 		"/>
		<polygon fill="#FFFFFF" points="455.407,591.146 455.407,576.787 436.005,577.332 436.005,591.146 		"/>
		<polygon fill="#FFFFFF" points="436.005,591.476 436.005,577.332 424.488,576.789 423.673,591.117 		"/>
	</g>
	<g id="Layer_3">
		<path d="M404.185,282.318c0,0,25.749-6.886,38.81-1.084l1.085-7.253l-23.212-1.813l-15.954-1.452L404.185,282.318z"/>
		<path d="M337.437,513.504c0,0,10.516,16.32,36.628,5.439l-0.362-6.529l-15.23,2.174l-11.605-3.627l-8.341-2.174L337.437,513.504z"
			/>
		<path d="M452.039,519.666c0,0,17.772,10.881,36.268-3.988l-1.085-5.438l-9.428,2.896l-9.435,1.813l-16.32-0.361V519.666
			L452.039,519.666z"/>
		<path d="M657.129,219.348c2.271,2.436,4.183,5.267,5.917,8.09c3.928,6.375,6.752,13.456,7.959,20.856
			c1.075,6.59,0.66,13.421-1.255,19.817c-2.519,8.412-7.526,15.796-13.552,22.099c-0.438,0.458-0.218,1.094,0.346,1.293
			c0.658,0.229,1.42-0.019,1.892-0.505c7.97-8.338,13.994-18.556,15.505-30.122c1.117-8.563-0.429-17.291-3.673-25.238
			c-2.536-6.214-6.086-12.521-10.691-17.466C658.746,217.283,656.219,218.366,657.129,219.348z"/>
		<path d="M679.151,227.307c2.095,3.096,3.565,6.724,4.723,10.254c2.632,8.033,3.143,16.713,1.064,24.932
			c-2.04,8.074-6.578,15.277-12.254,21.291c-0.368,0.393,1.431,0.144,1.729-0.178c7.603-8.053,12.859-17.995,13.648-29.149
			c0.524-7.453-0.995-14.993-3.94-21.832c-0.857-1.998-1.826-4.022-3.049-5.831C680.771,226.345,679.028,227.127,679.151,227.307z"
			/>
		<path d="M531.622,345.881c0.066,0.008,0.979,0.102,2.565,0.102c2.416,0,6.396-0.219,11.313-1.309
			c3.689-0.816,7.907-2.125,12.383-4.201c6.711-3.107,13.999-7.951,20.914-15.41c6.917-7.455,13.457-17.52,18.729-31.039
			l-3.896-1.517c-4.535,11.629-9.983,20.497-15.729,27.272c-4.311,5.078-8.781,8.984-13.173,11.996
			c-6.589,4.518-12.996,7.021-18.379,8.398c-5.382,1.379-9.73,1.629-12.164,1.629c-0.713,0-1.26-0.02-1.618-0.041
			c-0.183-0.01-0.314-0.02-0.398-0.023c-0.043-0.008-0.073-0.01-0.091-0.012l-0.016-0.002h-0.004l-0.131,1.252l0.137-1.252h-0.006
			l-0.131,1.252l0.137-1.252L531.622,345.881z"/>
		<path d="M528.968,324.121c0.071-0.006,2.66-0.188,6.721-0.992c3.043-0.605,6.911-1.564,11.169-3.064
			c6.381-2.252,13.637-5.729,20.234-11.127c3.3-2.695,6.435-5.877,9.193-9.612c2.762-3.738,5.15-8.035,6.963-12.951l-3.92-1.446
			c-2.977,8.066-7.588,14.251-12.87,19.044c-3.963,3.594-8.307,6.398-12.603,8.578c-6.442,3.271-12.774,5.133-17.479,6.166
			c-2.352,0.516-4.296,0.826-5.643,1.008c-0.672,0.09-1.196,0.148-1.546,0.186c-0.179,0.018-0.311,0.025-0.396,0.035
			c-0.043,0.006-0.075,0.008-0.094,0.01h-0.021l-0.003,0.002l0,0h-0.003l0.119,1.65l-0.114-1.652l-0.005,0.002l0.119,1.65
			l-0.114-1.652L528.968,324.121z"/>
		<path d="M577.494,265.868l2.039,0.451c1.073-4.85,3.748-8.909,7.354-11.771c3.606-2.863,8.139-4.514,12.896-4.514
			c1.48,0,2.989,0.16,4.502,0.494c4.849,1.073,8.907,3.749,11.771,7.356c2.862,3.604,4.514,8.137,4.513,12.894
			c0,1.484-0.159,2.991-0.494,4.504c-1.072,4.852-3.748,8.907-7.354,11.771c-3.604,2.862-8.135,4.51-12.892,4.509
			c-1.485,0-2.992-0.16-4.505-0.495c-4.852-1.07-8.907-3.748-11.772-7.354c-2.858-3.607-4.51-8.135-4.509-12.895
			c0-1.48,0.16-2.987,0.494-4.503L577.494,265.868l-2.04-0.449c-0.4,1.81-0.595,3.621-0.594,5.402
			c0,5.729,1.979,11.163,5.415,15.489c3.433,4.326,8.333,7.553,14.144,8.836c1.813,0.4,3.621,0.593,5.406,0.593
			c5.725,0,11.162-1.979,15.488-5.415c4.324-3.431,7.554-8.332,8.838-14.142c0.4-1.81,0.593-3.621,0.593-5.406
			c0-5.726-1.979-11.164-5.416-15.487c-3.43-4.328-8.331-7.558-14.142-8.842c-1.813-0.397-3.62-0.593-5.404-0.593
			c-5.729,0-11.163,1.983-15.49,5.416s-7.555,8.333-8.838,14.146L577.494,265.868z"/>
		<path d="M622.542,276.099c0.148,0.048,4.313,1.447,10.49,1.449c3.68,0,8.08-0.5,12.744-2.104
			c4.663-1.603,9.585-4.314,14.256-8.686l1.198-1.12l-9.869-17.551l-3.642,2.048l9.063,16.121l1.821-1.023l-1.427-1.523
			c-4.237,3.958-8.611,6.354-12.766,7.784c-4.146,1.431-8.081,1.881-11.385,1.881c-2.771,0-5.097-0.317-6.71-0.634
			c-0.807-0.154-1.438-0.313-1.854-0.426c-0.21-0.057-0.364-0.103-0.466-0.133c-0.05-0.015-0.085-0.026-0.104-0.033l-0.021-0.007
			l-0.001-0.001l-0.39,1.163l0.394-1.162l-0.004-0.001l-0.39,1.163l0.394-1.162L622.542,276.099z"/>
		<path d="M622.802,267.497c0.146-0.022,5.12-0.667,11.327-3.626c3.104-1.48,6.516-3.546,9.762-6.411
			c3.244-2.866,6.318-6.542,8.726-11.208l0.823-1.598l-18.423-13.35l-2.451,3.383l16.969,12.297l1.229-1.688l-1.856-0.957
			c-2.149,4.169-4.879,7.427-7.78,9.991c-4.348,3.845-9.1,6.116-12.758,7.417c-1.828,0.646-3.38,1.055-4.46,1.296
			c-0.541,0.117-0.964,0.197-1.244,0.248c-0.141,0.021-0.245,0.041-0.313,0.051c-0.032,0.005-0.06,0.008-0.069,0.01l-0.013,0.001
			h-0.001l0.093,0.702l-0.093-0.702l0,0l0.093,0.702l-0.093-0.702l0.139,1.059l-0.138-1.059h-0.001l0.139,1.059l-0.138-1.059h-0.001
			l0.256,1.964l-0.253-1.964h-0.003l0.256,1.964l-0.253-1.964L622.802,267.497z"/>
		<path d="M618.885,257.146c0.115-0.083,3.782-2.669,7.766-7.71c1.989-2.52,4.056-5.657,5.779-9.402
			c1.723-3.741,3.101-8.101,3.702-13.032l0.218-1.771l-26.628-7.659l-0.101,2.667l0,0c-0.001,0.041-0.053,1.31-0.262,3.289
			c-0.313,2.976-0.984,7.564-2.349,12.024c-0.679,2.229-1.526,4.423-2.565,6.354c-1.038,1.938-2.266,3.604-3.648,4.819l2.761,3.135
			c1.264-1.107,2.347-2.414,3.285-3.829c1.647-2.479,2.872-5.305,3.815-8.153c1.412-4.275,2.186-8.613,2.619-11.904
			c0.432-3.29,0.517-5.53,0.519-5.578l-2.088-0.079l-0.576,2.009l22.351,6.431l0.578-2.008l-2.074-0.256
			c-0.547,4.471-1.79,8.399-3.354,11.8c-2.343,5.095-5.409,8.984-7.887,11.59c-1.237,1.301-2.324,2.276-3.092,2.924
			c-0.383,0.323-0.688,0.562-0.892,0.716c-0.102,0.077-0.177,0.134-0.225,0.169c-0.023,0.02-0.041,0.029-0.05,0.036l-0.009,0.006
			h-0.001l0.574,0.816l-0.572-0.817h-0.003l0.575,0.816l-0.572-0.817l0,0l1.147,1.634l-1.146-1.635l-0.002,0.001l1.148,1.634
			l-1.147-1.635L618.885,257.146z"/>
		<polygon points="581.382,257.615 569.542,232.486 582.44,228.871 591.57,249.811 595.4,248.14 584.815,223.864 563.657,229.797
			577.602,259.396 		"/>
		<path d="M574.551,327.869c0.011-0.055,0.156-1.148,0.156-2.855c-0.002-2.205-0.245-5.432-1.416-8.729
			c-0.586-1.65-1.408-3.32-2.561-4.871c-1.151-1.549-2.638-2.979-4.514-4.127l-1.516,2.475c1.544,0.947,2.745,2.104,3.697,3.383
			c1.427,1.918,2.285,4.127,2.777,6.246c0.495,2.119,0.625,4.137,0.624,5.627c0,0.77-0.03,1.396-0.063,1.822
			c-0.02,0.215-0.033,0.379-0.045,0.488c-0.006,0.053-0.013,0.094-0.017,0.115l-0.003,0.025l-0.001,0.004l0.527,0.07l-0.526-0.072
			l-0.001,0.002l0.527,0.07l-0.526-0.072L574.551,327.869z"/>
		<path d="M589.127,310.275c-0.004-0.035-0.123-0.941-0.446-2.328c-0.486-2.082-1.428-5.248-3.191-8.221
			c-0.885-1.484-1.981-2.921-3.355-4.13c-1.373-1.208-3.034-2.182-4.985-2.691l-0.733,2.81c0.979,0.257,1.858,0.664,2.661,1.188
			c1.398,0.918,2.572,2.217,3.525,3.678c1.438,2.188,2.367,4.732,2.923,6.719c0.274,0.99,0.463,1.842,0.573,2.438
			c0.062,0.301,0.1,0.533,0.122,0.689c0.016,0.078,0.021,0.139,0.027,0.176l0.005,0.041l0.001,0.008l0.115-0.016l-0.115,0.016l0,0
			l0.115-0.016l-0.115,0.016L589.127,310.275z"/>
		<path d="M402.651,271.146l-0.524,12.607c-0.048,1.149,1.162,1.479,2.315,1.526c1.149,0.051,1.679,0.865,1.727-0.288l0.657-13.676
			c0.047-1.15-0.848-2.126-2-2.174C403.673,269.098,402.698,269.993,402.651,271.146"/>
		<polyline points="441.732,269.663 441.732,289.485 445.909,289.485 445.909,269.663 		"/>
		<path d="M400.465,282.732c0.048,0.051,2.73,2.956,7.519,5.869c2.393,1.456,5.313,2.913,8.689,4.009
			c3.38,1.098,7.225,1.827,11.444,1.827c6.357,0.002,13.574-1.667,21.328-6.187c0.52-0.305,0.692-0.972,0.394-1.488
			c-0.303-0.521-0.969-0.695-1.485-0.396c-7.453,4.342-14.258,5.891-20.233,5.894c-3.971,0-7.582-0.688-10.773-1.724
			c-4.783-1.55-8.625-3.884-11.257-5.825c-1.313-0.974-2.332-1.848-3.012-2.473c-0.34-0.313-0.597-0.563-0.767-0.731
			c-0.086-0.085-0.148-0.15-0.188-0.192c-0.02-0.021-0.035-0.037-0.044-0.046l-0.009-0.01l-0.001-0.001l-0.293,0.271l0.293-0.271
			l0,0l-0.293,0.271l0.293-0.271c-0.407-0.442-1.099-0.472-1.538-0.063C400.087,281.602,400.057,282.29,400.465,282.732
			L400.465,282.732z"/>
		<path d="M443.302,275.064c3.143,0.938,6.017,2.104,8.545,3.445c3.802,2.01,6.815,4.417,8.832,6.995
			c1.014,1.289,1.773,2.613,2.284,3.966c0.51,1.35,0.771,2.72,0.771,4.128c0,1.353-0.239,2.67-0.71,3.968
			c-0.411,1.137-1,2.254-1.768,3.352c-1.337,1.914-3.215,3.754-5.563,5.42c-3.521,2.504-8.101,4.613-13.378,6.082
			c-5.28,1.471-11.265,2.305-17.599,2.305c-5.515,0-10.763-0.633-15.513-1.768c-3.563-0.854-6.845-1.984-9.749-3.336
			c-2.178-1.018-4.144-2.154-5.854-3.387c-2.57-1.846-4.563-3.896-5.893-6.024c-0.665-1.066-1.165-2.152-1.501-3.253
			c-0.335-1.103-0.506-2.219-0.507-3.357c0.001-1.746,0.4-3.437,1.181-5.095c0.585-1.243,1.392-2.468,2.405-3.649
			c1.521-1.773,3.521-3.458,5.922-4.972c2.402-1.517,5.208-2.857,8.327-3.966c1.087-0.389,1.655-1.581,1.268-2.669
			c-0.387-1.089-1.578-1.654-2.667-1.271c-3.002,1.067-5.768,2.346-8.239,3.811c-3.708,2.197-6.77,4.813-8.938,7.813
			c-1.084,1.499-1.94,3.094-2.532,4.771c-0.588,1.678-0.899,3.435-0.899,5.229c0,1.854,0.334,3.667,0.96,5.393
			c0.547,1.51,1.313,2.952,2.268,4.317c1.669,2.393,3.902,4.541,6.573,6.438c4.007,2.844,9.005,5.119,14.676,6.697
			s12.018,2.457,18.716,2.457c5.834,0,11.399-0.666,16.484-1.881c3.813-0.912,7.356-2.129,10.543-3.613
			c2.39-1.111,4.579-2.379,6.527-3.775c2.923-2.104,5.313-4.512,6.997-7.209c0.841-1.348,1.503-2.769,1.949-4.245
			c0.451-1.479,0.689-3.015,0.688-4.576c0.002-2.576-0.649-5.068-1.819-7.365c-0.879-1.725-2.045-3.345-3.445-4.852
			c-2.107-2.261-4.748-4.269-7.81-5.998c-3.061-1.731-6.539-3.188-10.339-4.322c-1.104-0.331-2.271,0.297-2.6,1.403
			C441.569,273.569,442.196,274.734,443.302,275.064z"/>
		<path d="M403.202,274.974c0.383-0.135,0.76-0.268,1.138-0.394c0.57-0.19,0.877-0.809,0.688-1.379
			c-0.189-0.567-0.808-0.878-1.375-0.688c-0.4,0.133-0.79,0.271-1.173,0.405c-0.566,0.198-0.864,0.818-0.665,1.388
			C402.013,274.876,402.635,275.173,403.202,274.974z"/>
		<path d="M425.727,293.566L425.727,293.566c0.043,0.033,1.376,1.099,2.683,3.058c1.308,1.961,2.587,4.8,2.587,8.441
			c0,2.963-0.843,6.477-3.271,10.525c-0.207,0.344-0.099,0.789,0.246,0.994c0.346,0.207,0.789,0.096,0.996-0.248
			c2.545-4.24,3.479-8.029,3.479-11.271c0.001-2.023-0.363-3.832-0.907-5.395c-0.815-2.35-2.038-4.147-3.056-5.366
			c-1.021-1.219-1.836-1.858-1.868-1.883c-0.316-0.246-0.771-0.188-1.017,0.128C425.353,292.864,425.41,293.32,425.727,293.566z"/>
		<path d="M405.125,285.116c-0.049,0.03-2.216,1.326-4.394,4.028c-1.092,1.354-2.183,3.055-2.999,5.126
			c-0.818,2.071-1.363,4.512-1.363,7.313c0,3.146,0.686,6.744,2.415,10.797c0.157,0.369,0.583,0.539,0.952,0.383
			c0.368-0.158,0.539-0.584,0.382-0.953c-1.661-3.895-2.298-7.293-2.298-10.227c0-2.614,0.506-4.862,1.262-6.777
			c1.134-2.871,2.841-4.991,4.264-6.39c0.711-0.7,1.354-1.221,1.811-1.562c0.229-0.17,0.411-0.296,0.535-0.378
			c0.062-0.041,0.105-0.071,0.139-0.09l0.033-0.021l0.006-0.004l-0.006-0.011l0.006,0.011l0,0l-0.006-0.011l0.006,0.011
			c0.344-0.206,0.457-0.647,0.252-0.995C405.914,285.023,405.468,284.912,405.125,285.116z"/>
		<path d="M445.644,290.083l0.012-0.077L445.644,290.083L445.644,290.083l0.012-0.077L445.644,290.083
			c0.021,0.003,0.805,0.132,1.96,0.502c1.731,0.554,4.295,1.653,6.384,3.646c1.046,0.997,1.976,2.211,2.646,3.702
			s1.092,3.264,1.093,5.389c0,1.09-0.11,2.271-0.355,3.557c-0.075,0.393,0.184,0.773,0.577,0.848
			c0.393,0.076,0.771-0.182,0.848-0.574c0.261-1.365,0.381-2.643,0.381-3.826c0.003-3.115-0.834-5.633-2.098-7.609
			c-0.944-1.484-2.123-2.667-3.351-3.604c-1.845-1.402-3.793-2.263-5.289-2.773c-1.495-0.516-2.537-0.683-2.568-0.688
			c-0.396-0.063-0.768,0.207-0.83,0.604C444.978,289.649,445.248,290.02,445.644,290.083z"/>
		<path d="M403.785,277.531c0.03,0.021,2.625,1.634,6.88,3.244c4.254,1.612,10.17,3.229,16.844,3.229
			c5.232,0,10.937-0.998,16.629-3.776c0.36-0.175,0.513-0.61,0.334-0.97c-0.176-0.36-0.607-0.51-0.97-0.334
			c-5.475,2.67-10.94,3.629-15.993,3.63c-6.438,0-12.189-1.566-16.33-3.135c-2.066-0.785-3.73-1.569-4.876-2.155
			c-0.569-0.293-1.013-0.537-1.31-0.706c-0.148-0.085-0.26-0.15-0.335-0.194c-0.037-0.021-0.064-0.039-0.082-0.05l-0.021-0.012
			l-0.004-0.002l0,0c-0.34-0.212-0.788-0.107-0.999,0.23C403.341,276.873,403.445,277.32,403.785,277.531z"/>
		<path d="M388.654,280.026c-0.025,0-0.479-0.019-1.286-0.019c-2.224,0-7.12,0.133-13.065,1.132
			c-5.941,1.002-12.942,2.862-19.379,6.396l-0.685,0.376l-0.271,0.734c-0.012,0.034-6.556,17.849-13.377,42.087
			c-3.412,12.121-6.892,25.852-9.66,39.773c-2.767,13.928-4.822,28.049-5.375,40.99l-0.052,1.229l1.053,0.645
			c0.102,0.059,10.651,6.473,29.082,12.881c18.433,6.406,44.743,12.807,76.349,12.809c26.183,0,55.994-4.396,87.906-16.82
			l1.293-0.506l0.035-1.387c0.001-0.018,0.039-1.482,0.039-4.117c-0.001-8.541-0.406-29.34-3.902-52.684
			c-1.749-11.672-4.271-23.982-7.91-35.73c-3.646-11.744-8.404-22.934-14.688-32.353l-0.313-0.475l-0.51-0.248
			c-0.043-0.021-3.45-1.679-8.611-3.612c-5.163-1.938-12.073-4.153-19.178-5.276c-1.143-0.18-2.209,0.599-2.392,1.738
			c-0.181,1.139,0.601,2.209,1.737,2.39c6.68,1.052,13.37,3.188,18.361,5.063c2.496,0.937,4.567,1.806,6.015,2.438
			c0.723,0.316,1.286,0.574,1.667,0.75c0.191,0.089,0.336,0.157,0.432,0.204c0.052,0.022,0.084,0.039,0.107,0.051l0.024,0.014
			l0.005,0.002h0.001l0.914-1.878l-1.737,1.156c5.976,8.962,10.612,19.8,14.169,31.277c5.341,17.217,8.259,35.869,9.828,51.781
			c1.571,15.912,1.802,29.09,1.801,35.395c0,1.295-0.009,2.303-0.02,2.979c-0.007,0.34-0.012,0.6-0.016,0.771
			c-0.002,0.086-0.003,0.15-0.004,0.193c-0.002,0.021-0.002,0.037-0.002,0.047v0.016l2.088,0.057l-0.758-1.947
			c-31.402,12.227-60.674,16.537-86.391,16.537c-31.035,0.002-56.895-6.289-74.977-12.576c-9.041-3.143-16.136-6.283-20.959-8.631
			c-2.411-1.174-4.254-2.146-5.486-2.828c-0.617-0.34-1.082-0.604-1.392-0.783c-0.151-0.088-0.268-0.152-0.342-0.197
			c-0.038-0.021-0.065-0.037-0.082-0.051l-0.018-0.012l-0.005-0.002l-0.217,0.357l0.217-0.357l0,0l-0.217,0.357l0.217-0.357
			l-1.086,1.785l2.088,0.09c0.534-12.631,2.56-26.568,5.3-40.352c4.106-20.682,9.829-41.01,14.519-56.152
			c2.346-7.572,4.436-13.85,5.937-18.232c0.75-2.188,1.353-3.907,1.769-5.074c0.208-0.583,0.368-1.027,0.477-1.328
			c0.057-0.149,0.098-0.265,0.122-0.34c0.017-0.035,0.024-0.063,0.031-0.084l0.009-0.024l-1.96-0.723l1.007,1.83
			c2.925-1.604,6.028-2.854,9.108-3.818c4.62-1.446,9.183-2.249,12.972-2.687c3.79-0.436,6.812-0.506,8.354-0.506
			c0.373,0,0.659,0.004,0.849,0.008c0.098,0.002,0.166,0.003,0.211,0.005c0.023,0,0.04,0.001,0.052,0.001h0.01h0.001
			c1.149,0.047,2.125-0.851,2.17-2.004C390.705,281.044,389.806,280.072,388.654,280.026z"/>
		<path d="M336.81,354.978c-2.273-0.563-4.333-1.584-6.176-3c-2.756-2.123-5.013-5.148-6.58-8.813
			c-1.563-3.66-2.437-7.945-2.437-12.518c0-2.949,0.362-6.021,1.127-9.117c1.733-7.033,5.247-12.973,9.591-17.104
			c2.171-2.063,4.546-3.68,7.001-4.77c2.456-1.095,4.986-1.666,7.504-1.667c1.312,0,2.615,0.155,3.915,0.478l-0.003-0.001h-0.003
			c0.45,0.112,0.884,0.238,1.304,0.379l1.335-3.959c-0.541-0.185-1.083-0.338-1.626-0.474l-0.006-0.004
			c-1.63-0.399-3.274-0.596-4.915-0.596c-3.15,0-6.267,0.718-9.202,2.024c-4.401,1.96-8.413,5.228-11.689,9.453
			c-3.275,4.225-5.819,9.406-7.259,15.232c-0.848,3.426-1.248,6.828-1.248,10.121c0.002,6.797,1.712,13.125,4.857,18.17
			c1.575,2.521,3.517,4.721,5.783,6.469c2.27,1.748,4.867,3.043,7.721,3.748L336.81,354.978z"/>
		<path d="M321.065,314.494c-0.116,0.014-2.896,0.332-7.167,1.738c-3.203,1.061-7.244,2.73-11.619,5.354
			c-6.563,3.93-13.878,10.006-20.186,19.299c-6.308,9.291-11.593,21.781-14.183,38.471l4.128,0.645
			c2.231-14.359,6.482-25.328,11.567-33.732c3.813-6.303,8.101-11.168,12.387-14.936c6.427-5.648,12.861-8.824,17.672-10.59
			c2.405-0.885,4.402-1.408,5.783-1.715c0.688-0.15,1.226-0.248,1.581-0.309c0.177-0.029,0.31-0.047,0.394-0.059
			c0.042-0.008,0.072-0.014,0.089-0.016l0.02-0.002h0.001h0.006l-0.198-1.688l0.188,1.688l0.01-0.002l-0.198-1.688l0.188,1.688
			L321.065,314.494z"/>
		<path d="M319.399,337.426c-0.089,0.029-1.983,0.635-4.881,2.1c-4.347,2.199-10.958,6.344-17.072,13.4
			c-3.058,3.529-5.981,7.787-8.421,12.883c-2.44,5.094-4.396,11.023-5.515,17.879l4.124,0.674
			c1.409-8.629,4.191-15.598,7.563-21.227c2.528-4.223,5.391-7.691,8.266-10.523c4.313-4.248,8.654-7.066,11.9-8.813
			c1.623-0.873,2.972-1.479,3.899-1.861c0.468-0.188,0.825-0.322,1.063-0.41c0.119-0.045,0.208-0.072,0.263-0.094
			c0.027-0.01,0.047-0.016,0.061-0.02l0.01-0.004l0,0l-0.242-0.758l0.241,0.758l0,0l-0.242-0.758l0.241,0.758h0.002l-0.563-1.762
			l0.56,1.764l0.005-0.002l-0.563-1.762l0.56,1.764L319.399,337.426z"/>
		<path d="M293.551,402.519h-2.089c0,2.871-0.581,5.6-1.63,8.08c-1.574,3.725-4.209,6.896-7.524,9.137
			c-3.313,2.238-7.298,3.547-11.604,3.547c-2.872,0-5.597-0.58-8.079-1.633c-3.723-1.572-6.896-4.211-9.136-7.523
			c-2.238-3.316-3.543-7.299-3.544-11.605c0-2.871,0.582-5.596,1.631-8.078c1.574-3.723,4.209-6.896,7.521-9.135
			c3.316-2.236,7.301-3.543,11.605-3.543c2.872,0,5.597,0.58,8.08,1.631c3.722,1.574,6.896,4.207,9.135,7.521
			c2.238,3.313,3.543,7.297,3.544,11.604L293.551,402.519h2.089c0-3.438-0.695-6.723-1.96-9.707
			c-1.895-4.477-5.054-8.277-9.03-10.969c-3.979-2.688-8.787-4.26-13.944-4.258c-3.438,0-6.722,0.697-9.707,1.961
			c-4.478,1.893-8.281,5.053-10.97,9.029c-2.689,3.977-4.264,8.785-4.264,13.941c0,3.438,0.698,6.725,1.96,9.707
			c1.896,4.479,5.057,8.281,9.033,10.975c3.979,2.688,8.787,4.262,13.944,4.262c3.437,0,6.723-0.699,9.708-1.963
			c4.478-1.896,8.281-5.057,10.97-9.033c2.689-3.979,4.261-8.787,4.26-13.945H293.551L293.551,402.519z"/>
		<path d="M247.356,402.256c-0.064-0.006-0.862-0.09-2.208-0.09c-2.859,0-8.206,0.375-14.242,2.727
			c-3.019,1.18-6.202,2.854-9.313,5.223c-3.104,2.365-6.135,5.432-8.829,9.357l-0.928,1.354l13.426,15.008l3.114-2.785
			l-12.332-13.785l-1.557,1.396l1.722,1.182c2.444-3.563,5.15-6.289,7.918-8.4c4.15-3.162,8.453-4.936,12.206-5.92
			c3.751-0.98,6.945-1.174,8.813-1.172c0.586,0,1.041,0.021,1.341,0.035c0.147,0.01,0.262,0.02,0.332,0.023
			c0.035,0.004,0.06,0.006,0.072,0.008h0.014l0,0l0.144-1.359l-0.146,1.359h0.004l0.144-1.359l-0.146,1.359L247.356,402.256
			L247.356,402.256z"/>
		<path d="M248.961,410.711c-0.138,0.053-4.854,1.758-10.279,5.986c-2.709,2.113-5.594,4.863-8.144,8.365
			c-2.549,3.498-4.76,7.752-6.101,12.826l-0.458,1.736l20.868,9.059l1.663-3.832l-19.224-8.344l-0.832,1.916l2.021,0.533
			c1.197-4.533,3.157-8.309,5.438-11.438c3.416-4.691,7.565-7.938,10.856-9.998c1.645-1.025,3.069-1.76,4.072-2.229
			c0.502-0.234,0.897-0.402,1.161-0.512c0.132-0.057,0.231-0.096,0.293-0.115c0.031-0.016,0.057-0.021,0.066-0.025l0.012-0.004
			l0.001-0.002l-0.299-0.824l0.298,0.826l0.001-0.002l-0.299-0.824l0.298,0.826l0,0l-0.669-1.852l0.667,1.852h0.002l-0.669-1.852
			l0.667,1.852L248.961,410.711z"/>
		<path d="M255.019,419.972c-0.091,0.1-2.694,2.959-5.308,7.984c-1.305,2.516-2.607,5.572-3.591,9.094
			c-0.981,3.523-1.637,7.514-1.637,11.883c0,1.363,0.063,2.768,0.203,4.199l0.17,1.773l27.648,1.729l-0.478-2.625l0,0
			c-0.008-0.045-0.239-1.336-0.467-3.379c-0.229-2.043-0.453-4.836-0.453-7.875c-0.001-2.932,0.211-6.094,0.808-9.008
			c0.297-1.455,0.69-2.852,1.19-4.117c0.499-1.271,1.104-2.416,1.815-3.391l-3.373-2.469c-0.965,1.322-1.727,2.785-2.333,4.326
			c-0.906,2.314-1.473,4.801-1.816,7.299c-0.348,2.5-0.472,5.01-0.472,7.355c0,3.295,0.245,6.273,0.49,8.443
			c0.245,2.166,0.491,3.52,0.497,3.559l2.057-0.373l0.132-2.086l-23.209-1.451l-0.132,2.084l2.079-0.199
			c-0.125-1.299-0.183-2.563-0.183-3.799c0-3.949,0.593-7.559,1.484-10.762c1.336-4.803,3.351-8.686,5.021-11.348
			c0.835-1.332,1.584-2.359,2.117-3.045c0.266-0.344,0.478-0.6,0.619-0.766c0.069-0.084,0.124-0.145,0.156-0.182l0.033-0.039
			l0.008-0.008l-0.044-0.039l0.044,0.039l0,0l-0.044-0.039l0.044,0.039l-0.772-0.703l0.771,0.705l0.001-0.002l-0.772-0.703
			l0.771,0.705l0,0l-1.5-1.369l1.497,1.369h0.001l-1.5-1.369l1.498,1.369L255.019,419.972z"/>
		<polygon points="291.537,411.418 308.522,433.398 296.71,439.715 283.273,421.24 279.894,423.697 295.47,445.115 314.847,434.754
			294.842,408.865 		"/>
		<path d="M298.705,325.002l0.766-0.254l-0.807,0.076C298.666,324.834,298.665,324.877,298.705,325.002l0.766-0.254l-0.807,0.076
			l0,0c0.001,0.006,0.002,0.027,0.002,0.063c0,0.082-0.005,0.227-0.015,0.398c-0.029,0.527-0.098,1.371-0.098,2.406
			c0,2.102,0.271,5.039,1.635,8.32c1.355,3.281,3.809,6.893,8.047,10.33l1.83-2.254c-3.896-3.168-6.019-6.346-7.196-9.188
			c-1.177-2.844-1.41-5.357-1.411-7.213c0-0.607,0.026-1.146,0.052-1.605c0.016-0.232,0.027-0.443,0.038-0.641
			c0.01-0.195,0.021-0.377,0.021-0.559c0-0.105-0.002-0.215-0.017-0.34c-0.014-0.125-0.027-0.266-0.094-0.463L298.705,325.002z"/>
		<path d="M283.039,341.349c0.003,0.045,0.078,0.938,0.358,2.322c0.423,2.078,1.302,5.264,3.153,8.361
			c0.931,1.549,2.104,3.07,3.599,4.402c1.489,1.33,3.306,2.463,5.468,3.207l0.946-2.742c-2.373-0.816-4.196-2.176-5.645-3.785
			c-1.082-1.211-1.94-2.566-2.621-3.928c-1.018-2.039-1.618-4.084-1.957-5.604c-0.169-0.762-0.271-1.395-0.336-1.826
			c-0.028-0.217-0.051-0.383-0.063-0.494c-0.006-0.055-0.013-0.096-0.016-0.121l-0.002-0.023v-0.004l-0.057,0.004l0.057-0.004l0,0
			l-0.057,0.004l0.057-0.004v-0.004l-1.333,0.111l1.333-0.105v-0.006l-1.333,0.111l1.333-0.105L283.039,341.349z"/>
		<path d="M272.604,361.672c0.013,0.035,0.321,0.895,0.938,2.18c0.927,1.93,2.526,4.816,4.895,7.336
			c1.185,1.256,2.563,2.428,4.169,3.311c1.601,0.883,3.433,1.475,5.447,1.551l0.111-2.898c-1.013-0.041-1.958-0.248-2.854-0.588
			c-1.567-0.594-2.989-1.605-4.238-2.828c-1.874-1.824-3.334-4.107-4.302-5.928c-0.485-0.908-0.852-1.699-1.092-2.258
			c-0.118-0.279-0.209-0.5-0.268-0.648c-0.029-0.07-0.05-0.129-0.064-0.164l-0.014-0.039l-0.003-0.008l-0.108,0.039l0.108-0.039l0,0
			l-0.108,0.039l0.108-0.039L272.604,361.672z"/>
		<path d="M514.341,368.804c3.029-0.59,5.813-1.842,8.249-3.604c3.658-2.646,6.546-6.422,8.521-10.867
			c1.975-4.449,3.044-9.578,3.045-15.006c0-2.652-0.257-5.375-0.79-8.123c-1.57-8.072-5.27-15.039-10.188-20.045
			c-2.462-2.502-5.232-4.518-8.213-5.908c-2.978-1.396-6.166-2.164-9.415-2.164c-1.296,0-2.6,0.123-3.898,0.375h0.006l0,0
			c-0.08,0.016-0.234,0.043-0.406,0.072c-0.263,0.047-0.571,0.102-0.847,0.154c-0.068,0.018-0.136,0.027-0.203,0.043
			c-0.051,0.014-0.104,0.023-0.156,0.037c-0.041,0.014-0.084,0.021-0.134,0.037c-0.038,0.01-0.079,0.021-0.13,0.039
			c-0.039,0.016-0.083,0.031-0.144,0.055c-0.043,0.02-0.093,0.039-0.155,0.072c-0.052,0.025-0.106,0.059-0.181,0.104
			c-0.055,0.033-0.113,0.074-0.189,0.137c-0.111,0.092-0.256,0.217-0.425,0.459c-0.083,0.123-0.174,0.277-0.243,0.477
			c-0.069,0.197-0.121,0.441-0.121,0.703c0,0.166,0.021,0.34,0.062,0.502c0.078,0.318,0.229,0.588,0.377,0.779
			c0.145,0.184,0.281,0.305,0.402,0.396c0.229,0.168,0.389,0.232,0.513,0.283c0.108,0.041,0.189,0.063,0.26,0.078
			c0.113,0.029,0.19,0.039,0.257,0.047c0.095,0.016,0.156,0.02,0.217,0.021c0.057,0.002,0.104,0.004,0.153,0.004v-4.178l0,0
			l-0.011,0.83l0.047-0.83c-0.024,0-0.035,0-0.036,0l-0.011,0.83l0.046-0.83l-0.087,1.564l0.186-1.559
			c-0.047-0.006-0.075-0.006-0.099-0.008l-0.087,1.564l0.186-1.559l-0.218,1.854l0.364-1.834c-0.064-0.014-0.11-0.02-0.146-0.02
			l-0.218,1.854l0.364-1.834l-0.391,1.955l0.59-1.904c-0.086-0.023-0.146-0.039-0.199-0.051l-0.391,1.955l0.59-1.904l-0.604,1.953
			l0.85-1.857c-0.102-0.045-0.18-0.072-0.244-0.096l-0.604,1.953l0.85-1.857l-0.855,1.881l1.129-1.73
			c-0.106-0.066-0.195-0.113-0.271-0.146l-0.855,1.879l1.129-1.73l-1.139,1.742l1.705-1.188c-0.205-0.293-0.413-0.449-0.566-0.557
			l-1.139,1.742l1.705-1.188l-1.709,1.188l1.979-0.658c-0.068-0.207-0.166-0.387-0.271-0.529l-1.709,1.188l1.979-0.658l-1.979,0.658
			h2.085c0-0.223-0.038-0.451-0.104-0.658l-1.979,0.658h2.085h-2.084l1.996,0.602c0.053-0.18,0.088-0.385,0.088-0.602h-2.084
			l1.996,0.602l-1.994-0.602l1.808,1.037c0.066-0.119,0.137-0.266,0.188-0.438l-1.994-0.602l1.808,1.037l-1.802-1.033l1.426,1.514
			c0.104-0.104,0.236-0.24,0.376-0.479l-1.802-1.033l1.426,1.514l-1.41-1.496l1.148,1.703c0.069-0.051,0.153-0.107,0.262-0.207
			l-1.41-1.496l1.148,1.703l-1.119-1.656l0.842,1.813c0.063-0.027,0.146-0.066,0.277-0.156l-1.119-1.656l0.842,1.813l-0.731-1.58
			l0.532,1.658c0.033-0.012,0.081-0.021,0.199-0.078l-0.731-1.58l0.532,1.658l-0.285-0.889l0.24,0.9
			c0.003-0.002,0.015-0.006,0.045-0.014l-0.285-0.889l0.24,0.898l-0.023-0.092l0.023,0.092l0,0l-0.023-0.092l0.023,0.092
			c0.007-0.002,0.099-0.021,0.208-0.045c0.168-0.031,0.39-0.07,0.602-0.109c0.214-0.037,0.41-0.07,0.568-0.104l0.005-0.002
			c1.036-0.201,2.072-0.299,3.104-0.299c2.586,0.002,5.161,0.611,7.645,1.771c3.719,1.736,7.212,4.727,10.034,8.666
			c2.823,3.938,4.972,8.82,6.036,14.301c0.479,2.484,0.713,4.939,0.713,7.324c0,3.252-0.432,6.363-1.229,9.225
			c-1.19,4.293-3.214,8.006-5.815,10.791c-1.305,1.395-2.751,2.559-4.319,3.461c-1.569,0.904-3.262,1.547-5.07,1.898
			L514.341,368.804L514.341,368.804z"/>
		<path d="M475.842,470.97c4.816-3.414,9.236-7.684,12.839-13.004c3.604-5.316,6.385-11.682,7.939-19.25l-1.422-0.291l1.407,0.354
			c0.021-0.098,0.846-3.412,0.846-9.041c0-0.938-0.022-1.936-0.075-2.988l-2.896,0.145c0.051,1.012,0.069,1.957,0.069,2.846
			c0,2.674-0.192,4.779-0.388,6.209c-0.097,0.715-0.192,1.258-0.262,1.613c-0.035,0.184-0.064,0.314-0.083,0.4
			c-0.013,0.043-0.02,0.072-0.021,0.092l-0.004,0.021h-0.001l-0.007,0.027l-0.007,0.029c-1.486,7.215-4.111,13.203-7.499,18.207
			c-3.392,5.004-7.545,9.023-12.114,12.264L475.842,470.97z"/>
		<path d="M388.497,477.912c9.311,2.932,20.457,4.703,33.798,4.764l0.007-1.453l-0.106,1.447c0.028,0.002,1.676,0.125,4.464,0.125
			c3.159,0,7.784-0.156,13.188-0.828l-0.355-2.879c-5.261,0.652-9.771,0.807-12.833,0.807c-1.354,0-2.42-0.027-3.147-0.059
			c-0.362-0.016-0.644-0.029-0.826-0.041c-0.095-0.006-0.162-0.01-0.208-0.014c-0.021,0-0.038-0.002-0.052-0.006h-0.011h-0.001
			l-0.051-0.004h-0.052c-13.095-0.061-23.944-1.797-32.939-4.629L388.497,477.912z"/>
		<path d="M341.788,419.238c0.001,0.055,0.078,3.672,0.986,8.959c0.906,5.287,2.644,12.252,6.003,19.006l2.598-1.293
			c-3.185-6.396-4.868-13.105-5.742-18.203c-0.438-2.549-0.674-4.693-0.801-6.195c-0.063-0.752-0.1-1.342-0.12-1.74
			c-0.01-0.195-0.016-0.35-0.019-0.447c-0.002-0.053-0.003-0.092-0.004-0.111v-0.025v-0.006l0,0L341.788,419.238z"/>
		<path d="M353.184,466.496c-1.307-1.84-2.305-3.746-2.971-5.629c-0.667-1.887-1.003-3.742-1.003-5.498
			c0-1.115,0.135-2.188,0.405-3.211s0.677-1.994,1.229-2.912l-0.012,0.02l0.011-0.02c0.605-1.002,1.351-1.879,2.223-2.646
			c1.306-1.143,2.903-2.027,4.746-2.637c1.838-0.605,3.914-0.922,6.131-0.922c4.734-0.004,10.106,1.455,15.141,4.49
			c4.22,2.543,7.575,5.813,9.853,9.273c1.138,1.73,2.006,3.506,2.586,5.258s0.872,3.48,0.872,5.113c0,1.113-0.138,2.188-0.407,3.209
			c-0.271,1.021-0.677,1.994-1.231,2.912l0,0c-0.604,1.002-1.348,1.881-2.219,2.645c-1.306,1.146-2.906,2.033-4.746,2.641
			c-1.838,0.604-3.913,0.924-6.13,0.924c-0.044,0-0.09,0-0.138-0.002l-0.021,4.18c0.052,0,0.104,0,0.158,0
			c3.484,0,6.79-0.66,9.673-2.02c1.44-0.684,2.773-1.539,3.956-2.576c1.182-1.035,2.212-2.25,3.042-3.627l0.013-0.021l-0.013,0.021
			c0.761-1.262,1.324-2.607,1.693-4c0.37-1.395,0.545-2.828,0.545-4.279c0-2.133-0.378-4.295-1.083-6.426
			c-1.062-3.195-2.854-6.32-5.259-9.188c-2.408-2.863-5.438-5.473-8.987-7.611c-5.648-3.4-11.713-5.088-17.297-5.09
			c-3.485,0-6.791,0.656-9.674,2.02c-1.44,0.682-2.774,1.539-3.956,2.574c-1.186,1.035-2.215,2.25-3.043,3.629l0,0
			c-0.764,1.262-1.322,2.607-1.69,4c-0.369,1.393-0.545,2.828-0.545,4.281c0,2.287,0.436,4.607,1.243,6.891
			c0.808,2.281,1.988,4.521,3.498,6.652L353.184,466.496z"/>
		<path d="M336.668,508.955c-0.386,4.125-0.598,8.518-0.598,13.186c0,4.861,0.229,10.021,0.733,15.49l4.16-0.383
			c-0.494-5.352-0.718-10.379-0.718-15.107c0-4.541,0.207-8.805,0.581-12.797L336.668,508.955z"/>
		<path d="M358.969,455.299c-0.123,0.1-3.022,2.477-6.728,7.643c-3.702,5.166-8.202,13.123-11.512,24.354l4.007,1.182
			c3.172-10.754,7.448-18.275,10.898-23.098c1.729-2.41,3.248-4.146,4.322-5.262c0.537-0.563,0.963-0.969,1.247-1.227
			c0.142-0.129,0.248-0.223,0.315-0.277c0.031-0.029,0.057-0.053,0.067-0.063l0.016-0.01l0,0l-0.626-0.77l0.625,0.77h0.001
			l-0.626-0.77l0.625,0.77l0,0l-1.272-1.564l1.271,1.566l0.002-0.004l-1.272-1.563l1.271,1.564L358.969,455.299z"/>
		<path d="M371.144,512.924c0.435,6.086,1.617,12.588,3.887,19.342c2.266,6.754,5.613,13.756,10.355,20.844l3.475-2.322
			c-4.542-6.785-7.724-13.443-9.87-19.852c-2.148-6.398-3.271-12.549-3.68-18.311L371.144,512.924z"/>
		<path d="M380.63,469.248c-0.046,0.074-1.563,2.543-3.388,6.893c-1.823,4.352-3.954,10.576-5.211,18.17l4.122,0.686
			c1.189-7.205,3.22-13.131,4.939-17.238c0.861-2.051,1.646-3.648,2.209-4.725c0.282-0.537,0.511-0.945,0.661-1.215
			c0.077-0.135,0.135-0.23,0.173-0.297c0.021-0.029,0.032-0.055,0.041-0.064l0.011-0.018l-0.042-0.021l0.042,0.021l0,0l-0.042-0.021
			l0.042,0.021L380.63,469.248z"/>
		<path d="M380.8,506.283l-2.047-0.42c-0.093,0.451-0.252,0.885-0.479,1.307c-0.4,0.736-1.028,1.453-1.911,2.123
			c-0.66,0.502-1.46,0.973-2.385,1.391c-1.391,0.629-3.058,1.137-4.934,1.482s-3.959,0.531-6.18,0.531
			c-2.856,0-5.938-0.311-9.105-0.959h0.001c-3.082-0.637-5.96-1.535-8.528-2.621c-1.93-0.816-3.685-1.734-5.22-2.719
			c-2.303-1.471-4.105-3.088-5.281-4.654c-0.588-0.783-1.021-1.555-1.303-2.279c-0.277-0.727-0.407-1.406-0.407-2.051
			c0-0.316,0.028-0.625,0.094-0.934c0.093-0.453,0.252-0.885,0.479-1.307c0.401-0.736,1.029-1.455,1.911-2.125
			c0.66-0.502,1.46-0.973,2.385-1.391c1.391-0.627,3.058-1.139,4.933-1.482c1.875-0.346,3.958-0.531,6.178-0.531
			c2.856,0,5.939,0.309,9.108,0.959l0,0c3.082,0.637,5.96,1.535,8.527,2.621c1.931,0.814,3.685,1.732,5.22,2.715
			c2.304,1.471,4.105,3.086,5.281,4.656c0.592,0.785,1.021,1.553,1.304,2.279c0.277,0.729,0.407,1.41,0.407,2.055
			c0,0.316-0.028,0.625-0.094,0.932L380.8,506.283l2.046,0.42c0.12-0.586,0.182-1.182,0.182-1.771c0-1.078-0.197-2.145-0.553-3.172
			c-0.618-1.799-1.71-3.479-3.133-5.035c-2.139-2.332-5.046-4.412-8.512-6.16c-3.466-1.744-7.495-3.146-11.883-4.051l0,0
			c-3.439-0.707-6.796-1.045-9.951-1.045c-2.491,0-4.855,0.209-7.039,0.621c-1.638,0.307-3.174,0.729-4.586,1.264
			c-2.117,0.809-3.963,1.867-5.425,3.24c-0.73,0.688-1.361,1.453-1.861,2.299c-0.5,0.848-0.866,1.771-1.064,2.748
			c-0.121,0.586-0.183,1.184-0.183,1.771c0,1.078,0.196,2.146,0.549,3.172c0.622,1.799,1.71,3.475,3.136,5.031
			c2.139,2.332,5.046,4.414,8.512,6.158c3.466,1.746,7.495,3.15,11.883,4.057h0.001c3.438,0.707,6.792,1.043,9.946,1.043
			c2.491,0,4.854-0.209,7.041-0.619c1.638-0.309,3.175-0.729,4.588-1.266c2.117-0.807,3.964-1.865,5.426-3.238
			c0.73-0.688,1.361-1.451,1.861-2.299s0.866-1.771,1.064-2.748L380.8,506.283z"/>
		<path d="M401.994,570.437l1.982-0.66c-0.046-0.129-0.78-2.303-2.769-5.502c-1.489-2.398-3.681-5.379-6.805-8.49
			c-4.688-4.674-11.475-9.646-21.074-13.438s-22.003-6.393-37.918-6.393c-3.881,0-7.97,0.152-12.281,0.48l0.159,2.084l-0.039-2.088
			c-0.083,0.002-2.605,0.051-6.397,0.713c-2.847,0.496-6.402,1.338-10.181,2.771c-2.831,1.074-5.786,2.482-8.645,4.342
			c-2.146,1.395-4.236,3.041-6.175,4.984c-2.908,2.914-5.472,6.506-7.333,10.877c-1.866,4.371-3.034,9.514-3.215,15.512
			l-0.063,2.143l122.427,0.563l0.362-1.648c0.02-0.098,0.327-1.498,0.33-3.441c-0.001-0.977-0.078-2.084-0.328-3.248l-0.024-0.111
			l-0.036-0.105L401.994,570.437l-2.042,0.439c0.171,0.793,0.234,1.623,0.233,2.369c0,0.746-0.063,1.408-0.122,1.869
			c-0.03,0.229-0.063,0.414-0.082,0.527c-0.013,0.063-0.021,0.105-0.024,0.127l-0.004,0.023l-0.001,0.002l1.212,0.262l-1.21-0.268
			l-0.001,0.006l1.212,0.262l-1.21-0.268l2.041,0.449l0.009-2.092l-118.597-0.545l-0.009,2.088l2.087,0.064
			c0.131-4.371,0.824-8.164,1.921-11.465c0.96-2.895,2.229-5.41,3.719-7.621c2.605-3.869,5.891-6.805,9.396-9.047
			c2.626-1.684,5.373-2.967,8.017-3.945c3.965-1.469,7.7-2.242,10.424-2.643c1.363-0.199,2.475-0.311,3.233-0.365
			c0.38-0.029,0.673-0.045,0.867-0.053c0.097-0.008,0.168-0.01,0.214-0.012c0.021,0,0.039,0,0.048-0.002h0.009h0.001l0,0h0.003
			l-0.036-1.604l0.03,1.604h0.006l-0.036-1.604l0.03,1.604l0.06-0.002l0.063-0.004c4.209-0.32,8.192-0.471,11.962-0.471
			c13.744,0,24.641,1.994,33.258,4.947c6.463,2.217,11.646,4.975,15.796,7.854c6.224,4.32,10.123,8.924,12.469,12.42
			c1.173,1.748,1.952,3.219,2.437,4.236c0.241,0.508,0.407,0.9,0.511,1.162c0.052,0.129,0.086,0.225,0.108,0.279
			c0.011,0.029,0.018,0.053,0.021,0.063l0.002,0.008l0.351-0.117l-0.351,0.117l0,0l0.351-0.117l-0.351,0.117l0.001,0.006
			l1.731-0.588l-1.735,0.578l0.004,0.01l1.731-0.588l-1.735,0.578L401.994,570.437l-2.042,0.439L401.994,570.437z"/>
		<polygon points="281.307,576.244 281.307,592.476 404.083,592.476 404.083,576.244 399.904,576.244 399.904,588.299
			285.486,588.299 285.486,576.244 		"/>
		<path d="M319.982,539.533l0.003,0.002c0.169,0.064,7.607,3.131,14.938,9.242c3.664,3.057,7.296,6.867,9.999,11.428
			c2.703,4.559,4.484,9.85,4.485,15.939c0,0.148,0,0.295-0.003,0.443l2.176,0.031c0.002-0.158,0.003-0.316,0.003-0.477
			c0.002-6.576-1.953-12.313-4.858-17.168c-2.179-3.645-4.891-6.801-7.726-9.484c-4.254-4.033-8.788-7.018-12.266-8.998
			c-3.479-1.982-5.9-2.965-5.938-2.979L319.982,539.533z"/>
		<polyline points="300.444,576.603 300.444,590.386 303.344,590.386 303.344,576.603 		"/>
		<polyline points="322.205,576.244 322.205,589.299 325.106,589.299 325.106,576.244 		"/>
		<polyline points="344.689,576.97 344.689,590.386 347.59,590.386 347.59,576.97 		"/>
		<polyline points="368.626,576.64 368.987,591.146 371.887,591.078 371.526,576.566 		"/>
		<polyline points="388.21,576.603 388.21,590.386 391.112,590.386 391.112,576.603 		"/>
		<path d="M353.054,458.357l-0.113-0.813l0.111,0.813H353.054l-0.113-0.813l0.111,0.813c0,0,0.021-0.004,0.063-0.01
			c0.295-0.037,1.622-0.188,3.576-0.188c1.718,0,3.922,0.115,6.339,0.525c3.627,0.615,7.72,1.895,11.409,4.385
			c1.846,1.242,3.594,2.791,5.148,4.725c1.56,1.934,2.924,4.252,3.997,7.057c0.286,0.748,1.125,1.123,1.874,0.836
			c0.748-0.285,1.122-1.125,0.837-1.871c-1.565-4.102-3.754-7.346-6.267-9.871c-1.884-1.896-3.948-3.391-6.063-4.561
			c-3.173-1.754-6.457-2.781-9.461-3.373c-3.005-0.594-5.732-0.752-7.813-0.752c-2.444,0-3.995,0.219-4.048,0.227
			c-0.793,0.113-1.348,0.85-1.231,1.645C351.528,457.92,352.261,458.47,353.054,458.357z"/>
		<path d="M347.944,475.965l-0.125-0.363L347.944,475.965L347.944,475.965l-0.125-0.363L347.944,475.965
			c0.02-0.008,3.054-1.027,7.383-1.025c2.888,0,6.346,0.451,9.896,1.934c3.556,1.48,7.209,3.99,10.529,8.172l1.705-1.355
			c-3.541-4.463-7.522-7.213-11.396-8.822c-3.873-1.615-7.624-2.102-10.735-2.102c-4.743,0.002-8.012,1.119-8.088,1.146
			L347.944,475.965z"/>
		<path d="M338.696,527.48l-0.109-0.389L338.696,527.48L338.696,527.48l-0.109-0.389L338.696,527.48
			c0.016-0.006,5.202-1.441,12.656-1.441c3.513,0,7.525,0.316,11.743,1.252c4.222,0.932,8.641,2.477,12.975,4.928l1.07-1.895
			c-4.547-2.57-9.176-4.188-13.573-5.158c-4.399-0.975-8.571-1.305-12.215-1.305c-7.797,0-13.181,1.51-13.243,1.523L338.696,527.48z
			"/>
		<path d="M475.894,470.002c1.508-2.133,2.688-4.373,3.493-6.654c0.809-2.281,1.241-4.604,1.242-6.891
			c0-1.453-0.177-2.893-0.545-4.281c-0.369-1.391-0.932-2.736-1.689-3.998c-0.831-1.377-1.86-2.592-3.043-3.627
			c-1.774-1.557-3.888-2.707-6.193-3.467c-2.313-0.76-4.823-1.131-7.438-1.133c-5.582,0.004-11.646,1.689-17.296,5.094l0.062-0.033
			l-0.061,0.033c-4.731,2.854-8.539,6.537-11.185,10.559c-1.322,2.014-2.354,4.109-3.063,6.238
			c-0.704,2.131-1.083,4.293-1.083,6.424c0,1.451,0.179,2.893,0.546,4.281c0.368,1.391,0.933,2.736,1.691,3.998l-0.003-0.006
			l0.001,0.002c0.83,1.381,1.859,2.598,3.042,3.633c1.774,1.557,3.885,2.707,6.195,3.467c2.312,0.758,4.821,1.131,7.438,1.131
			c0.056,0,0.104,0,0.156-0.002l-0.021-4.178c-0.049,0-0.095,0-0.139,0c-2.957,0.002-5.66-0.563-7.891-1.619
			c-1.117-0.525-2.117-1.176-2.988-1.938c-0.87-0.766-1.612-1.645-2.215-2.646l-0.003-0.004l0.001,0.002
			c-0.554-0.918-0.96-1.891-1.232-2.912c-0.271-1.02-0.403-2.094-0.403-3.209c0-1.635,0.292-3.355,0.871-5.107
			c0.867-2.625,2.39-5.313,4.489-7.813c2.104-2.5,4.78-4.813,7.945-6.723l-0.058,0.035l0.058-0.035
			c5.031-3.037,10.402-4.496,15.138-4.492c2.958-0.002,5.659,0.566,7.894,1.621c1.114,0.527,2.116,1.178,2.984,1.938
			c0.872,0.768,1.614,1.646,2.223,2.646c0.554,0.918,0.96,1.889,1.229,2.91c0.271,1.02,0.404,2.096,0.404,3.211
			c0.001,1.754-0.335,3.609-1.002,5.496c-0.667,1.885-1.664,3.793-2.97,5.635L475.894,470.002z"/>
		<path d="M484.84,510.429c0.373,3.994,0.579,8.256,0.579,12.797c0,4.729-0.225,9.758-0.72,15.104l4.161,0.385
			c0.506-5.471,0.733-10.629,0.733-15.488c0-4.666-0.213-9.059-0.597-13.184L484.84,510.429z"/>
		<path d="M464.065,459.633l1.085-1.336l-1.087,1.334L464.065,459.633l1.085-1.336l-1.087,1.334l0.402-0.498l-0.404,0.498h0.002
			l0.402-0.498l-0.404,0.498c0.005,0.004,2.655,2.178,6.089,7.002c3.431,4.826,7.644,12.299,10.774,22.932l4.012-1.182
			c-3.313-11.229-7.813-19.188-11.515-24.354s-6.604-7.541-6.728-7.645L464.065,459.633z"/>
		<path d="M450.349,513.717c-0.406,5.758-1.524,11.906-3.675,18.307c-2.146,6.4-5.326,13.063-9.869,19.846l3.475,2.324
			c4.746-7.088,8.093-14.09,10.354-20.842c2.27-6.752,3.45-13.252,3.884-19.34L450.349,513.717L450.349,513.717z"/>
		<path d="M441.481,472.523l0.042-0.021L441.481,472.523L441.481,472.523l0.042-0.021L441.481,472.523
			c0.043,0.07,1.468,2.414,3.171,6.516c1.704,4.098,3.687,9.949,4.854,17.039l4.122-0.684c-1.255-7.59-3.384-13.816-5.207-18.168
			c-1.82-4.348-3.341-6.816-3.388-6.895L441.481,472.523z"/>
		<path d="M444.867,507.373l-2.047,0.42c0.178,0.867,0.484,1.697,0.902,2.463c0.732,1.344,1.788,2.49,3.056,3.451
			c0.95,0.721,2.021,1.34,3.188,1.869c1.76,0.791,3.738,1.383,5.896,1.777c2.152,0.398,4.482,0.604,6.938,0.604
			c3.153,0,6.512-0.336,9.946-1.043c3.344-0.688,6.479-1.666,9.316-2.863c2.127-0.898,4.087-1.922,5.84-3.043
			c2.631-1.682,4.805-3.58,6.375-5.666c0.784-1.045,1.417-2.141,1.854-3.283c0.442-1.145,0.69-2.342,0.689-3.557
			c0-0.592-0.062-1.188-0.18-1.773c-0.181-0.863-0.487-1.693-0.905-2.463c-0.731-1.346-1.787-2.494-3.053-3.455
			c-0.951-0.721-2.022-1.342-3.193-1.869c-1.758-0.795-3.739-1.387-5.896-1.781c-2.153-0.398-4.483-0.605-6.938-0.605
			c-3.151,0-6.504,0.338-9.939,1.043l0,0c-3.345,0.689-6.479,1.668-9.313,2.867c-2.128,0.9-4.087,1.922-5.841,3.043
			c-2.633,1.684-4.807,3.582-6.375,5.668c-0.784,1.047-1.416,2.143-1.857,3.287c-0.442,1.145-0.688,2.342-0.688,3.557
			c0,0.596,0.061,1.188,0.183,1.775L444.867,507.373l2.045-0.422c-0.063-0.311-0.094-0.617-0.094-0.936
			c0-0.574,0.103-1.176,0.318-1.813c0.385-1.115,1.14-2.342,2.268-3.572c1.688-1.848,4.201-3.688,7.31-5.25
			c3.106-1.566,6.806-2.861,10.85-3.693l0,0c3.165-0.648,6.241-0.957,9.098-0.957c2.257,0,4.371,0.191,6.271,0.553
			c1.428,0.268,2.729,0.629,3.879,1.063c1.729,0.654,3.1,1.482,4.049,2.379c0.477,0.447,0.849,0.908,1.128,1.381
			c0.274,0.475,0.466,0.953,0.567,1.467c0.064,0.309,0.098,0.613,0.098,0.932c0,0.574-0.104,1.174-0.321,1.813
			c-0.382,1.113-1.136,2.34-2.265,3.568c-1.688,1.848-4.201,3.688-7.312,5.248c-3.104,1.566-6.803,2.861-10.847,3.691
			c-3.168,0.648-6.25,0.957-9.105,0.955c-2.256,0.002-4.37-0.189-6.269-0.549c-1.425-0.268-2.729-0.627-3.877-1.063
			c-1.729-0.652-3.1-1.479-4.046-2.373c-0.479-0.447-0.851-0.91-1.126-1.381c-0.278-0.471-0.467-0.951-0.57-1.461L444.867,507.373z"
			/>
		<path d="M423.673,571.531l1.982,0.656l-1.859-0.617l1.858,0.625l0.001-0.008l-1.859-0.617l1.858,0.625l-0.046-0.018l0.046,0.02
			l0,0l-0.046-0.02l0.046,0.02c0.009-0.027,0.68-1.98,2.513-4.885c1.375-2.178,3.403-4.889,6.299-7.73
			c4.348-4.27,10.64-8.838,19.665-12.361c9.027-3.52,20.805-5.994,36.11-5.996c3.771,0,7.759,0.152,11.972,0.477l0.063,0.004
			l0.062,0.002l0.003-0.174l-0.004,0.174h0.001l0.003-0.174l-0.004,0.174c0.065,0.002,2.466,0.061,6.011,0.695
			c2.659,0.477,5.961,1.275,9.406,2.605c2.585,0.998,5.249,2.293,7.79,3.967c1.905,1.254,3.741,2.723,5.433,4.436
			c2.533,2.568,4.74,5.689,6.366,9.537c1.626,3.844,2.678,8.418,2.839,13.904l2.092-0.063l-0.014-2.088l-118.592,0.545l0.01,2.088
			l1.738-1.16l-0.922,0.617l0.955-0.566c-0.002-0.004-0.012-0.02-0.032-0.051l-0.922,0.617l0.955-0.566l-0.069,0.041l0.07-0.039
			l-0.001-0.002l-0.069,0.041l0.07-0.037c-0.003-0.008-0.086-0.15-0.167-0.42c-0.08-0.268-0.159-0.65-0.16-1.158
			c0.001-0.6,0.108-1.369,0.496-2.344l0.021-0.057l0.021-0.059L423.673,571.531l-1.938-0.777c-0.581,1.447-0.796,2.771-0.795,3.895
			c0,1.121,0.212,2.033,0.439,2.688c0.23,0.648,0.479,1.043,0.558,1.162l0.624,0.934l121.855-0.561l-0.063-2.145
			c-0.145-4.74-0.898-8.941-2.135-12.656c-1.075-3.25-2.521-6.117-4.219-8.641c-2.97-4.41-6.71-7.736-10.604-10.229
			c-2.929-1.871-5.941-3.279-8.82-4.348c-4.316-1.596-8.322-2.422-11.269-2.854c-2.943-0.434-4.827-0.473-4.897-0.473l-0.039,2.09
			l0.16-2.082c-4.314-0.33-8.408-0.486-12.291-0.486c-14.146,0-25.512,2.057-34.606,5.174c-6.817,2.34-12.355,5.277-16.817,8.375
			c-6.694,4.648-10.961,9.656-13.556,13.525c-2.595,3.871-3.521,6.604-3.567,6.748L423.673,571.531l-1.938-0.777L423.673,571.531z"
			/>
		<polygon points="540.177,577.332 540.177,589.388 425.761,589.388 425.761,577.332 421.584,577.332 421.584,593.566
			544.355,593.566 544.355,577.332 		"/>
		<path d="M504.866,538.603c-0.063,0.027-7.672,3.105-15.339,9.443c-3.833,3.172-7.686,7.164-10.59,12.023
			c-2.905,4.854-4.859,10.592-4.858,17.168c0,0.154,0.002,0.313,0.004,0.471l2.175-0.031c-0.001-0.145-0.003-0.293-0.003-0.438
			c0.002-6.145,1.813-11.471,4.551-16.055c2.058-3.436,4.638-6.443,7.356-9.023c4.081-3.871,8.478-6.77,11.847-8.689
			c1.688-0.959,3.111-1.676,4.113-2.15c0.501-0.234,0.896-0.412,1.163-0.529c0.133-0.061,0.235-0.104,0.302-0.129
			c0.034-0.018,0.062-0.025,0.074-0.031l0.019-0.008l0.006-0.002L504.866,538.603z"/>
		<polyline points="522.32,577.693 522.32,591.476 525.22,591.476 525.22,577.693 		"/>
		<polyline points="500.559,577.332 500.559,590.386 503.46,590.386 503.46,577.332 		"/>
		<polyline points="478.075,578.054 478.075,591.476 480.977,591.476 480.977,578.054 		"/>
		<polyline points="454.14,577.66 453.774,592.164 456.674,592.24 457.04,577.73 		"/>
		<polyline points="434.553,577.693 434.553,591.476 437.456,591.476 437.456,577.693 		"/>
		<path d="M473.023,456.578c-0.057-0.012-1.604-0.23-4.051-0.23c-1.852,0-4.213,0.125-6.823,0.57
			c-3.917,0.666-8.41,2.049-12.547,4.836c-2.067,1.393-4.041,3.139-5.79,5.309c-1.75,2.172-3.273,4.768-4.45,7.844
			c-0.286,0.746,0.089,1.586,0.836,1.871c0.749,0.285,1.588-0.09,1.874-0.838c1.432-3.734,3.385-6.613,5.617-8.859
			c1.675-1.688,3.51-3.018,5.407-4.064c2.852-1.574,5.85-2.52,8.621-3.064c2.772-0.549,5.321-0.697,7.256-0.695
			c1.136-0.002,2.06,0.051,2.689,0.102c0.315,0.025,0.561,0.051,0.72,0.068c0.082,0.008,0.145,0.016,0.183,0.021l0.041,0.006
			l0.008,0.002l0,0l0.115-0.813l-0.116,0.813h0.001l0.115-0.813l-0.116,0.813c0.793,0.109,1.525-0.439,1.642-1.232
			C474.366,457.424,473.816,456.687,473.023,456.578z"/>
		<path d="M478.427,474.998c-0.072-0.025-3.347-1.146-8.091-1.146c-3.112,0-6.858,0.484-10.73,2.102
			c-3.872,1.609-7.854,4.361-11.396,8.828l1.704,1.352c3.32-4.182,6.976-6.688,10.528-8.172c3.55-1.48,7.008-1.93,9.896-1.93
			c2.199-0.004,4.065,0.26,5.371,0.52c0.652,0.131,1.166,0.26,1.511,0.355c0.174,0.049,0.306,0.088,0.391,0.111
			c0.043,0.016,0.072,0.021,0.094,0.029l0.021,0.006l0.004,0.002l0.122-0.363l-0.123,0.361l0.001,0.002l0.122-0.363l-0.123,0.361
			L478.427,474.998z"/>
		<path d="M487.553,526.476c-0.063-0.018-5.447-1.525-13.247-1.525c-3.643,0-7.813,0.33-12.212,1.303
			c-4.396,0.973-9.022,2.588-13.567,5.162l1.068,1.893c4.333-2.451,8.752-3.996,12.973-4.93c4.216-0.934,8.229-1.252,11.738-1.252
			c3.761,0,6.939,0.365,9.176,0.729c1.114,0.186,1.997,0.363,2.593,0.5c0.299,0.066,0.523,0.121,0.677,0.16
			c0.075,0.021,0.131,0.035,0.168,0.043l0.04,0.016l0.008,0.002h0.002l0.105-0.385l-0.106,0.385h0.001l0.105-0.385l-0.106,0.385
			L487.553,526.476z"/>
		<path d="M363.184,403.064h-1.091c0,1.955-0.79,3.721-2.068,5c-1.283,1.281-3.045,2.072-5,2.072s-3.718-0.791-5-2.072
			c-1.281-1.279-2.071-3.045-2.071-5c0-1.957,0.791-3.719,2.071-5c1.282-1.279,3.044-2.068,5-2.07c1.956,0.002,3.717,0.791,5,2.07
			c1.278,1.281,2.068,3.043,2.068,5H363.184h1.088c0-2.551-1.037-4.867-2.709-6.539c-1.67-1.672-3.989-2.709-6.539-2.709
			c-2.553,0-4.869,1.037-6.539,2.709c-1.671,1.672-2.709,3.988-2.708,6.539c0,2.553,1.037,4.869,2.708,6.539
			c1.67,1.672,3.986,2.709,6.539,2.709c2.55,0,4.869-1.037,6.539-2.709c1.672-1.67,2.709-3.986,2.709-6.539H363.184z"/>
		<polyline points="349.217,396.588 357.922,410.004 359.747,408.822 351.043,395.402 		"/>
		<path d="M495.56,411.769h-1.091c0,1.957-0.789,3.721-2.068,5c-1.283,1.281-3.044,2.07-5,2.072
			c-1.956-0.002-3.721-0.791-5.001-2.072c-1.282-1.279-2.071-3.043-2.071-5s0.789-3.717,2.071-5c1.28-1.279,3.045-2.068,5.001-2.068
			s3.717,0.789,5,2.068c1.279,1.283,2.068,3.043,2.068,5H495.56h1.089c0.001-2.551-1.037-4.869-2.709-6.539
			c-1.67-1.672-3.988-2.709-6.539-2.709c-2.554,0-4.87,1.037-6.54,2.709c-1.672,1.67-2.709,3.988-2.708,6.539
			c-0.001,2.553,1.036,4.869,2.708,6.539c1.67,1.672,3.986,2.709,6.54,2.709c2.551,0,4.869-1.037,6.539-2.709
			c1.672-1.67,2.71-3.986,2.709-6.539H495.56z"/>
		<polyline points="481.592,405.293 490.298,418.709 492.123,417.523 483.418,404.107 		"/>
		<path d="M423.198,425.787l-0.436-0.998c-0.921,0.396-1.875,0.588-2.813,0.588c-1.365,0-2.701-0.398-3.838-1.129
			c-1.136-0.73-2.071-1.789-2.65-3.125v-0.002c-0.398-0.922-0.59-1.877-0.59-2.818c0-1.365,0.397-2.699,1.127-3.836
			c0.732-1.137,1.789-2.072,3.124-2.652c0.921-0.398,1.875-0.588,2.816-0.59c1.361,0,2.697,0.398,3.837,1.129
			c1.137,0.732,2.071,1.791,2.652,3.127c0.4,0.924,0.591,1.875,0.592,2.816c0,1.365-0.398,2.701-1.132,3.838
			c-0.729,1.137-1.792,2.074-3.127,2.656l0.001-0.002L423.198,425.787l0.434,0.998c1.739-0.756,3.135-1.988,4.089-3.477
			c0.955-1.482,1.478-3.227,1.478-5.014c0-1.232-0.248-2.486-0.771-3.686c-0.755-1.738-1.985-3.137-3.473-4.092
			c-1.486-0.953-3.227-1.475-5.014-1.475c-1.232,0-2.486,0.248-3.687,0.77c-1.738,0.756-3.133,1.988-4.086,3.475
			c-0.955,1.482-1.473,3.227-1.473,5.012c0,1.232,0.249,2.488,0.77,3.689v-0.002c0.753,1.738,1.985,3.137,3.474,4.09
			c1.483,0.955,3.227,1.475,5.014,1.475c1.229,0,2.483-0.248,3.68-0.768h0.001L423.198,425.787z"/>
		<polyline points="423.57,410.39 414.736,423.72 416.549,424.924 425.384,411.594 		"/>
		<path d="M348.524,104.431l0.681,1.975l0,0c0.084-0.026,9.434-3.245,24.374-6.445c14.94-3.204,35.469-6.396,57.896-6.396
			c11.775,0,24.072,0.878,36.357,3.088s24.559,5.749,36.298,11.063l0.861-1.903l-1.938,0.787l0.428-0.173l-0.428,0.172l0,0
			l0.428-0.173l-0.428,0.172c0.044,0.1,14.211,35.081,14.208,89.639c0,14.028-0.936,29.354-3.286,45.712l2.066,0.3l-1.326-1.614
			l1.191,1.451l-1.189-1.452l-0.002,0.001l1.191,1.451l-1.189-1.452l-0.021,0.018c-0.504,0.41-9.822,7.896-25.444,15.257
			c-7.811,3.685-17.191,7.333-27.84,10.063c-10.646,2.729-22.55,4.535-35.411,4.535c-13.112,0-27.218-1.876-42.021-6.576
			c-14.807-4.701-30.311-12.229-46.209-23.555l-1.212,1.699l1.99-0.627l-0.401,0.127l0.401-0.127l0,0l-0.401,0.127l0.401-0.127
			c-0.011-0.033-1.98-6.32-3.946-16.669c-1.97-10.346-3.929-24.751-3.929-41.015c0-12.183,1.102-25.407,4.105-38.752
			c3.005-13.346,7.915-26.813,15.532-39.505L348.524,104.431l0.681,1.975L348.524,104.431l-1.792-1.075
			c-7.88,13.135-12.938,27.028-16.025,40.736c-3.087,13.71-4.207,27.237-4.207,39.67c0,16.664,2.011,31.365,4.022,41.919
			c2.012,10.553,4.023,16.957,4.045,17.019l0.21,0.668l0.567,0.406c16.234,11.566,32.143,19.299,47.369,24.134
			c15.229,4.836,29.776,6.773,43.286,6.772c13.479,0,25.92-1.925,37-4.809c16.621-4.327,30.176-10.809,39.595-16.215
			c9.418-5.403,14.702-9.738,14.772-9.799l0.627-0.514l0.115-0.803c2.382-16.57,3.33-32.095,3.33-46.309
			c-0.004-55.502-14.446-91.039-14.519-91.213l-0.313-0.771l-0.76-0.347c-12.104-5.479-24.708-9.105-37.279-11.367
			c-12.574-2.263-25.114-3.153-37.1-3.153c-22.908,0.001-43.781,3.263-58.947,6.521c-15.165,3.265-24.622,6.524-24.687,6.546
			l-0.718,0.247l-0.391,0.651L348.524,104.431z"/>
		<path d="M403.579,93.273c0.363-1.774,1.317-3.596,2.808-5.328c2.229-2.599,5.651-4.978,9.835-6.695
			c4.188-1.727,9.127-2.794,14.395-2.846c0.153-0.001,0.307-0.002,0.459-0.002c3.765,0,7.346,0.438,10.592,1.226
			c4.868,1.178,8.978,3.149,11.811,5.562c1.421,1.205,2.52,2.514,3.263,3.876c0.741,1.364,1.133,2.776,1.146,4.244l2.396-0.021
			c-0.016-1.257-0.244-2.481-0.667-3.652c-0.741-2.05-2.063-3.922-3.813-5.573c-2.626-2.476-6.22-4.474-10.444-5.869
			c-4.229-1.393-9.098-2.179-14.279-2.18c-0.16,0-0.321,0.001-0.481,0.003c-7.435,0.072-14.255,2.051-19.484,5.091
			c-2.616,1.522-4.837,3.313-6.534,5.284c-1.694,1.973-2.872,4.138-3.337,6.408L403.579,93.273z"/>
		<polygon points="430.593,76.456 430.922,65.694 409.439,55.571 429.977,47.208 422.708,41.979 422.976,29.639 420.583,29.588
			420.287,43.186 425.067,46.623 403.485,55.41 428.481,67.19 428.201,76.383 		"/>
		<polygon points="438.179,76.722 437.816,60.809 426.462,55.697 442.849,47.888 430.22,36.78 430.155,29.734 427.76,29.756
			427.837,37.871 438.543,47.288 420.768,55.758 435.457,62.372 435.786,76.776 		"/>
		<path d="M437.434,18.896l-1.197,0.011c0.001,0.032,0.001,0.065,0.001,0.1c-0.001,2.789-1.122,5.312-2.945,7.152
			c-1.825,1.844-4.337,2.988-7.131,3.017c-0.033,0-0.067,0.001-0.1,0.001c-2.79-0.001-5.313-1.122-7.153-2.944
			c-1.84-1.825-2.986-4.336-3.013-7.131c-0.001-0.033-0.001-0.066-0.001-0.099c0.001-2.791,1.117-5.313,2.94-7.157
			c1.825-1.841,4.335-2.988,7.132-3.015h0.001c0.033,0,0.066,0,0.102,0c2.787,0,5.309,1.118,7.149,2.941
			c1.844,1.825,2.989,4.338,3.019,7.135L437.434,18.896l1.194-0.011c-0.032-3.448-1.455-6.567-3.725-8.814
			c-2.271-2.248-5.399-3.638-8.836-3.637c-0.042,0-0.082,0-0.122,0l0,0c-3.446,0.032-6.565,1.454-8.813,3.725
			c-2.247,2.271-3.636,5.4-3.636,8.843c0,0.041,0,0.081,0.001,0.121c0.031,3.441,1.453,6.563,3.722,8.81
			c2.271,2.248,5.398,3.638,8.841,3.637c0.041,0,0.08,0,0.122,0c3.442-0.031,6.563-1.454,8.811-3.725
			c2.248-2.271,3.638-5.399,3.637-8.838c0-0.04,0-0.08,0-0.12L437.434,18.896z"/>
		<path d="M558.196,338.871l-1.024,0.104h1.03C558.202,338.951,558.2,338.914,558.196,338.871l-1.024,0.104h1.03h-0.718l0.715,0.068
			c0-0.012,0.003-0.033,0.003-0.068h-0.718l0.715,0.068l-0.313-0.031l0.313,0.041l0.002-0.01l-0.313-0.031l0.313,0.041l-0.059-0.008
			l0.059,0.008l0,0l-0.059-0.008l0.059,0.008c0-0.004,0.019-0.102,0.056-0.236c0.063-0.238,0.174-0.609,0.3-1.066
			c0.19-0.688,0.416-1.57,0.597-2.619c0.179-1.051,0.309-2.266,0.309-3.617c0-2.084-0.311-4.498-1.215-7.125
			c-0.904-2.629-2.399-5.467-4.74-8.414l-2.271,1.805c2.149,2.713,3.478,5.25,4.271,7.557c0.793,2.305,1.058,4.381,1.059,6.18
			c-0.001,1.881-0.289,3.455-0.585,4.656c-0.147,0.602-0.298,1.107-0.417,1.533c-0.063,0.213-0.114,0.404-0.159,0.598
			c-0.022,0.098-0.042,0.195-0.063,0.301c-0.016,0.107-0.029,0.227-0.029,0.377c0,0.061,0.002,0.121,0.011,0.193L558.196,338.871z"
			/>
		<path d="M358.619,165.384h-1.567v49.637l0.344,0.428c0.068,0.087,6.257,7.847,17.938,15.614
			c5.84,3.884,13.056,7.771,21.568,10.688c8.51,2.917,18.314,4.859,29.313,4.858c8.564,0,17.85-1.18,27.793-3.983
			c9.946-2.809,20.56-7.239,31.783-13.739l0.706-0.409l5.157-59.578l-3.082,3.239l1.024,0.978l-1.023-0.979h-0.001l1.024,0.978
			l-1.023-0.979l-0.019,0.015c-0.34,0.355-6.666,6.854-17.29,13.231c-5.313,3.188-11.694,6.35-18.94,8.71
			c-7.246,2.357-15.352,3.919-24.117,3.919c-10.004-0.001-20.877-2.026-32.376-7.246c-11.497-5.22-23.625-13.644-36.085-26.475
			l-2.691-2.771v3.862h1.567l-1.125,1.092c12.688,13.068,25.139,21.743,37.039,27.146c11.896,5.404,23.244,7.527,33.671,7.526
			c9.296,0,17.859-1.683,25.468-4.199c11.412-3.772,20.679-9.42,27.104-14.125c6.426-4.706,10.016-8.474,10.063-8.522l-1.136-1.08
			l-1.56-0.135l-4.701,54.312l1.561,0.135l-0.784-1.354c-11.021,6.38-21.389,10.704-31.063,13.435
			c-9.677,2.73-18.666,3.868-26.941,3.869c-10.626,0-20.08-1.876-28.297-4.691c-12.326-4.224-21.868-10.565-28.317-15.853
			c-3.227-2.642-5.678-5.018-7.313-6.725c-0.819-0.854-1.436-1.54-1.843-2.012c-0.204-0.232-0.355-0.415-0.455-0.531
			c-0.05-0.063-0.086-0.104-0.109-0.136l-0.022-0.028l-0.006-0.01l-0.01,0.01l0.01-0.01l0,0l-0.01,0.01l0.01-0.01l-1.227,0.979
			h1.567v-49.089h-1.569l-1.125,1.092L358.619,165.384z"/>
		<polyline points="376.247,182.748 376.247,230.403 378.596,230.403 378.596,182.748 		"/>
		<polyline points="407.318,196.979 407.318,242.938 409.668,242.938 409.668,196.979 		"/>
		<polyline points="444.658,198.283 444.658,242.675 447.01,242.675 447.01,198.283 		"/>
		<polyline points="468.16,188.361 468.16,235.364 470.51,235.364 470.51,188.361 		"/>
		<path d="M427.299,147.759h-1.175c0.001,7.532-2.771,14.334-7.229,19.241c-2.229,2.454-4.874,4.433-7.805,5.797
			c-2.929,1.361-6.14,2.116-9.516,2.117c-3.376,0-6.587-0.752-9.518-2.117c-4.395-2.046-8.15-5.479-10.813-9.814
			c-2.66-4.337-4.219-9.575-4.219-15.224c0-7.536,2.771-14.339,7.229-19.246c2.229-2.454,4.874-4.432,7.805-5.796
			c2.929-1.364,6.14-2.116,9.517-2.117c3.376,0,6.586,0.752,9.516,2.117c4.396,2.045,8.151,5.476,10.813,9.813
			c2.66,4.337,4.22,9.576,4.22,15.229H427.299l1.175,0.001c0-8.115-2.982-15.479-7.839-20.826c-2.428-2.674-5.321-4.844-8.55-6.347
			c-3.225-1.503-6.782-2.336-10.508-2.336c-3.729,0-7.284,0.833-10.509,2.336c-4.84,2.255-8.938,6.009-11.823,10.716
			s-4.566,10.371-4.566,16.457c0,8.111,2.985,15.474,7.841,20.821c2.427,2.674,5.32,4.844,8.55,6.348
			c3.225,1.503,6.779,2.337,10.509,2.337c3.726,0,7.283-0.834,10.508-2.337c4.839-2.255,8.938-6.01,11.823-10.716
			s4.563-10.37,4.563-16.453L427.299,147.759L427.299,147.759z"/>
		<path d="M426.493,138.403c1.972-4.625,5.088-8.524,8.927-11.266s8.395-4.318,13.288-4.32c3.377,0,6.587,0.752,9.516,2.117
			c4.396,2.046,8.151,5.479,10.813,9.815c2.659,4.338,4.22,9.573,4.22,15.227c0,7.532-2.771,14.335-7.229,19.242
			c-2.229,2.454-4.874,4.432-7.806,5.796c-2.929,1.365-6.139,2.116-9.516,2.117H448.7c-5.128-0.001-9.881-1.736-13.83-4.724
			c-3.946-2.982-7.078-7.226-8.908-12.21l-2.206,0.813c1.98,5.394,5.374,10.004,9.697,13.272c4.321,3.271,9.584,5.198,15.248,5.197
			h0.007c3.729,0,7.283-0.833,10.509-2.337c4.839-2.255,8.938-6.009,11.822-10.715c2.888-4.706,4.567-10.37,4.567-16.453
			c-0.001-8.114-2.986-15.478-7.843-20.825c-2.428-2.673-5.321-4.844-8.55-6.347c-3.226-1.503-6.782-2.337-10.509-2.337
			c-5.406-0.001-10.447,1.754-14.653,4.757c-4.207,3.003-7.587,7.25-9.722,12.257L426.493,138.403z"/>
		<path d="M406.929,152.323c0,3.466-2.807,6.271-6.269,6.271c-3.46,0-6.267-2.807-6.267-6.271c0-3.458,2.807-6.266,6.267-6.266
			C404.123,146.059,406.929,148.865,406.929,152.323z"/>
		<path d="M406.929,152.323h-1.175c0,1.411-0.565,2.68-1.492,3.604c-0.926,0.923-2.188,1.491-3.602,1.492
			c-1.409,0-2.674-0.568-3.6-1.492c-0.926-0.925-1.49-2.191-1.491-3.604c0.001-1.405,0.565-2.673,1.491-3.599
			c0.926-0.923,2.188-1.491,3.6-1.491s2.676,0.568,3.602,1.492c0.927,0.925,1.492,2.191,1.492,3.599L406.929,152.323l1.179,0.001
			c0-2.05-0.835-3.917-2.184-5.261c-1.343-1.345-3.211-2.18-5.263-2.18c-2.051,0-3.919,0.835-5.261,2.18
			c-1.348,1.343-2.183,3.21-2.183,5.261c0,2.055,0.835,3.924,2.183,5.267c1.342,1.345,3.21,2.181,5.261,2.18
			c2.052,0.001,3.92-0.835,5.263-2.18c1.349-1.343,2.184-3.212,2.184-5.267L406.929,152.323L406.929,152.323z"/>
		<path fill="#FFFFFF" d="M405.359,151.934c0,1.37-1.107,2.48-2.479,2.48c-1.373,0-2.48-1.111-2.48-2.48s1.107-2.479,2.48-2.479
			C404.252,149.454,405.359,150.565,405.359,151.934z"/>
		<path d="M449.885,153.762c0,3.462-2.807,6.269-6.27,6.269c-3.46,0-6.27-2.807-6.27-6.269c0-3.459,2.81-6.266,6.27-6.266
			C447.079,147.496,449.885,150.303,449.885,153.762z"/>
		<path d="M449.885,153.762h-1.176c-0.001,1.41-0.565,2.677-1.492,3.602c-0.925,0.927-2.188,1.491-3.602,1.492
			c-1.409-0.001-2.675-0.565-3.603-1.492c-0.924-0.925-1.488-2.189-1.489-3.602c0.001-1.409,0.565-2.674,1.488-3.599
			c0.929-0.926,2.191-1.491,3.604-1.491s2.677,0.565,3.602,1.491c0.928,0.925,1.491,2.188,1.492,3.599H449.885h1.178
			c0.001-2.05-0.835-3.918-2.183-5.261c-1.344-1.348-3.213-2.184-5.265-2.183c-2.052-0.001-3.919,0.835-5.262,2.183
			c-1.348,1.343-2.184,3.21-2.183,5.261c0,2.052,0.835,3.92,2.183,5.264c1.343,1.348,3.21,2.184,5.262,2.183
			c2.052,0.001,3.921-0.835,5.265-2.183c1.348-1.343,2.184-3.212,2.183-5.264H449.885z"/>
		<circle fill="#FFFFFF" cx="445.834" cy="153.372" r="2.48"/>
		<path d="M383.863,372.992c38.033-16.859,33.035-34.162,22.763-42.299c-9.869-7.814-18.854,2.143-18.854,2.143
			s-7.021-11.539-18.21-5.768c-11.646,6.008-19.981,21.928,14.103,45.787L383.863,372.992z"/>
		<path d="M339.611,561.189h-1.088c0,0.855-0.346,1.619-0.903,2.184c-0.563,0.559-1.325,0.9-2.179,0.902
			c-0.855-0.002-1.619-0.346-2.183-0.902c-0.56-0.564-0.9-1.326-0.901-2.184c0.001-0.852,0.344-1.611,0.9-2.176
			c0.563-0.559,1.326-0.898,2.184-0.902c0.854,0.004,1.614,0.346,2.179,0.902c0.56,0.564,0.902,1.324,0.903,2.176H339.611h1.088
			c0-1.445-0.591-2.768-1.541-3.715c-0.948-0.947-2.271-1.539-3.717-1.539c-1.449,0-2.771,0.59-3.722,1.539
			c-0.947,0.947-1.542,2.27-1.541,3.715c-0.001,1.449,0.593,2.771,1.54,3.723c0.949,0.947,2.271,1.541,3.722,1.541
			c1.445,0,2.77-0.594,3.717-1.541c0.95-0.949,1.541-2.271,1.541-3.723H339.611z"/>
		<path d="M351.398,547.59h-1.088c0,0.855-0.346,1.621-0.903,2.182c-0.563,0.563-1.325,0.902-2.178,0.902
			c-0.855,0-1.62-0.344-2.183-0.902c-0.56-0.563-0.9-1.322-0.901-2.182c0.001-0.852,0.344-1.615,0.9-2.176
			c0.563-0.563,1.325-0.902,2.184-0.902c0.854,0,1.614,0.344,2.179,0.902c0.56,0.561,0.902,1.324,0.902,2.176H351.398h1.088
			c0-1.447-0.591-2.768-1.54-3.715c-0.948-0.949-2.271-1.539-3.717-1.539c-1.449,0-2.771,0.59-3.722,1.539
			c-0.947,0.947-1.542,2.268-1.541,3.715c0,1.449,0.593,2.771,1.541,3.721s2.271,1.541,3.722,1.539
			c1.445,0.002,2.77-0.59,3.718-1.539c0.949-0.949,1.54-2.271,1.54-3.721H351.398z"/>
		<path d="M362.644,564.638h-1.091c0,0.855-0.343,1.617-0.9,2.18c-0.563,0.561-1.325,0.9-2.184,0.9c-0.854,0-1.617-0.344-2.182-0.9
			c-0.559-0.563-0.902-1.322-0.902-2.18c0-0.854,0.346-1.619,0.903-2.182c0.563-0.563,1.325-0.902,2.181-0.902
			s1.619,0.344,2.183,0.902c0.56,0.563,0.9,1.326,0.9,2.182H362.644h1.088c0.001-1.449-0.593-2.771-1.541-3.721
			s-2.271-1.541-3.722-1.539c-1.446-0.002-2.771,0.59-3.72,1.539c-0.95,0.949-1.541,2.271-1.541,3.721
			c-0.001,1.449,0.59,2.771,1.541,3.719c0.948,0.949,2.271,1.539,3.719,1.539c1.448,0,2.771-0.59,3.722-1.539
			c0.948-0.945,1.542-2.27,1.541-3.719H362.644z"/>
		<path d="M474.263,548.679h-1.087c-0.001,1.449,0.589,2.771,1.54,3.719c0.947,0.951,2.271,1.541,3.722,1.541
			c1.446,0,2.771-0.59,3.72-1.541c0.95-0.945,1.541-2.27,1.54-3.719c0.001-1.449-0.59-2.771-1.54-3.721
			c-0.948-0.949-2.271-1.539-3.72-1.539c-1.449,0-2.771,0.59-3.722,1.539c-0.951,0.949-1.541,2.271-1.54,3.721H474.263h1.091
			c0.001-0.854,0.344-1.619,0.9-2.182c0.563-0.563,1.325-0.902,2.184-0.902c0.854,0,1.616,0.344,2.181,0.902
			c0.56,0.563,0.903,1.326,0.903,2.182s-0.347,1.619-0.903,2.182c-0.563,0.563-1.325,0.902-2.181,0.902
			c-0.856,0-1.619-0.344-2.184-0.902c-0.56-0.563-0.899-1.324-0.9-2.182H474.263z"/>
		<path d="M463.023,565.722h-1.088c-0.005,1.449,0.59,2.771,1.537,3.721c0.948,0.949,2.271,1.539,3.723,1.539
			s2.771-0.59,3.719-1.539c0.95-0.945,1.541-2.271,1.54-3.721c0.001-1.447-0.59-2.768-1.54-3.715
			c-0.948-0.949-2.27-1.541-3.719-1.539c-1.449-0.002-2.771,0.59-3.723,1.539c-0.947,0.947-1.54,2.268-1.537,3.715H463.023h1.088
			c0-0.852,0.343-1.613,0.899-2.174c0.563-0.561,1.326-0.904,2.185-0.904c0.854,0,1.619,0.346,2.181,0.904
			c0.563,0.559,0.902,1.322,0.902,2.174c0,0.855-0.344,1.619-0.903,2.184c-0.562,0.561-1.324,0.9-2.18,0.9s-1.619-0.344-2.184-0.9
			c-0.561-0.563-0.9-1.324-0.9-2.184H463.023z"/>
		<path d="M484.966,563.73h-1.088c0,1.449,0.591,2.771,1.54,3.723c0.948,0.947,2.271,1.541,3.721,1.541
			c1.446,0,2.77-0.592,3.717-1.541c0.946-0.949,1.54-2.271,1.54-3.723c0-1.445-0.594-2.77-1.54-3.719
			c-0.947-0.949-2.271-1.541-3.717-1.541c-1.447,0-2.771,0.592-3.721,1.541c-0.949,0.949-1.54,2.271-1.54,3.719H484.966h1.088
			c0.001-0.854,0.348-1.615,0.904-2.18c0.563-0.559,1.325-0.902,2.181-0.902c0.854,0,1.614,0.346,2.178,0.902
			c0.559,0.563,0.899,1.326,0.899,2.18c0,0.857-0.344,1.621-0.899,2.186c-0.563,0.559-1.323,0.898-2.178,0.898
			c-0.854,0-1.617-0.342-2.181-0.9c-0.56-0.563-0.903-1.324-0.904-2.184H484.966L484.966,563.73z"/>
	</g>
</g>
</svg>
